<svg width="24" height="24" viewBox="0 0 24 24" fill="none" xmlns="http://www.w3.org/2000/svg">
<path fill-rule="evenodd" clip-rule="evenodd" d="M5.2045 13.9968C5.64384 13.6203 6.35616 13.6203 6.79549 13.9968L12 18.4578L17.2045 13.9968C17.6439 13.6203 18.3561 13.6203 18.7954 13.9968C19.2348 14.3734 19.2348 14.9839 18.7954 15.3605L12.7954 20.5034C12.3561 20.8799 11.6439 20.8799 11.2045 20.5034L5.2045 15.3605C4.76517 14.9839 4.76517 14.3734 5.2045 13.9968Z" fill="white"/>
<path fill-rule="evenodd" clip-rule="evenodd" d="M5.2045 7.13977C5.64384 6.76318 6.35616 6.76318 6.79549 7.13977L12 11.6007L17.2045 7.13977C17.6439 6.76318 18.3561 6.76318 18.7954 7.13977C19.2348 7.51636 19.2348 8.12681 18.7954 8.5034L12.7954 13.6463C12.3561 14.0229 11.6439 14.0229 11.2045 13.6463L5.2045 8.5034C4.76517 8.12681 4.76517 7.51636 5.2045 7.13977Z" fill="white" fill-opacity="0.56"/>
</svg>
