<svg width="62" height="62" viewBox="0 0 62 62" fill="none" xmlns="http://www.w3.org/2000/svg">
<path fill-rule="evenodd" clip-rule="evenodd" d="M22.5056 33.4956C23.0548 33.0249 23.9452 33.0249 24.4944 33.4956L31 39.0718L37.5057 33.4956C38.0549 33.0249 38.9451 33.0249 39.4943 33.4956C40.0435 33.9664 40.0435 34.7294 39.4943 35.2002L31.9943 41.6288C31.4451 42.0995 30.5549 42.0995 30.0057 41.6288L22.5056 35.2002C21.9565 34.7294 21.9565 33.9664 22.5056 33.4956Z" fill="white"/>
<path fill-rule="evenodd" clip-rule="evenodd" d="M22.5056 24.9243C23.0548 24.4536 23.9452 24.4536 24.4944 24.9243L31 30.5005L37.5057 24.9243C38.0549 24.4536 38.9451 24.4536 39.4943 24.9243C40.0435 25.3951 40.0435 26.1581 39.4943 26.6289L31.9943 33.0575C31.4451 33.5282 30.5549 33.5282 30.0057 33.0575L22.5056 26.6289C21.9565 26.1581 21.9565 25.3951 22.5056 24.9243Z" fill="white" fill-opacity="0.56"/>
</svg>
