<svg width="673" height="407" viewBox="0 0 673 407" fill="none" xmlns="http://www.w3.org/2000/svg">
<path d="M673.763 260.796V299.848C670.117 300.015 666.92 300.281 663.706 300.298C623.46 300.331 583.231 300.514 542.984 300.131C536.024 300.064 533.56 302.345 531.895 308.837C518.44 361.123 472.999 401.358 419.832 406.402C369.678 411.162 328.616 393.201 297.894 352.767C296.229 350.586 294.664 348.339 294.248 347.756C279.711 353.999 266.423 361.723 252.087 365.485C217.119 374.674 182.867 370.279 150.064 355.214C146.085 353.383 142.371 350.769 138.975 347.973C133.53 343.512 131.515 338.085 134.745 331.06C138.059 323.836 140.656 316.295 142.938 310.518C159.855 317.194 175.541 325.101 192.175 329.362C204.098 332.425 217.385 331.793 229.857 330.627C242.013 329.495 250.755 322.021 253.585 309.37C256.366 296.902 254.435 285.016 244.477 276.71C236.518 270.068 226.843 265.457 217.835 260.113C200.251 249.676 181.502 240.853 165.284 228.635C144.32 212.904 134.096 190.315 136.993 163.781C140.074 135.532 159.556 116.238 190.227 109.663C223.413 102.555 255.783 106.867 287.238 118.702C289.968 119.734 292.949 124.046 293.182 127.025C293.915 136.963 293.781 147.001 293.265 156.955C293.099 160.168 291.55 164.829 289.219 165.994C287.038 167.093 282.342 165.279 279.828 163.364C262.743 150.28 243.928 142.839 222.081 143.722C207.345 144.321 196.055 150.696 192.458 161.117C188.046 173.935 192.458 188.034 204.214 197.34C209.193 201.285 214.372 205.18 219.933 208.21C238.849 218.514 257.998 228.435 277.13 238.556C309.051 126.959 463.175 107.882 522.92 216.666C522.92 212.538 522.92 210.241 522.92 207.943C522.92 166.877 522.853 125.827 522.97 84.7601C523.003 76.4869 521.754 69.0792 516.276 62.2875C511.297 56.0951 514.044 51.3342 522.254 51.2343C537.24 51.0512 552.243 51.534 567.212 51.0179C574.788 50.7682 577.219 53.0821 577.186 60.8393C576.903 123.263 577.003 185.687 577.053 248.111C577.053 262.627 575.687 260.746 590.141 260.796C617.582 260.879 645.023 260.812 673.78 260.812L673.763 260.796ZM489.834 275.328C489.717 227.486 452.185 190.165 404.296 190.265C356.657 190.365 319.041 228.185 318.958 275.827C318.875 324.618 360.486 362.072 405.595 361.057C452.685 359.991 489.95 322.887 489.834 275.328Z" fill="#1F5BFF"/>
<path d="M132.455 10.7782C132.455 8.94662 132.311 7.50248 132.022 6.44579C131.806 5.31866 131.193 4.15631 130.184 2.95872C129.463 2.18382 129.247 1.51459 129.535 0.951019C129.896 0.317006 130.472 0 131.265 0H149.755V11.8349H174.3V23.4585H162.947C164.605 25.2901 165.902 27.3682 166.839 29.6929C167.848 31.9472 168.353 34.4128 168.353 37.0897C168.353 40.4007 167.74 43.5003 166.515 46.3886C165.289 49.2064 163.487 51.672 161.108 53.7854C158.73 55.8988 155.774 57.5543 152.242 58.7518C148.782 59.9494 144.817 60.5482 140.348 60.5482C135.879 60.5482 131.914 59.9494 128.454 58.7518C124.994 57.5543 122.074 55.8988 119.696 53.7854C117.317 51.672 115.479 49.2064 114.181 46.3886C112.956 43.5003 112.343 40.4007 112.343 37.0897C112.343 34.3424 112.775 31.8415 113.64 29.5873C114.578 27.333 115.875 25.2901 117.533 23.4585H106.18V11.8349H132.455V10.7782ZM183.058 70.1641V13.7369C183.058 11.9053 182.878 10.4612 182.518 9.40452C182.157 8.27739 181.473 7.11503 180.463 5.91745C179.742 5.14255 179.526 4.47331 179.815 3.90974C180.175 3.27573 180.752 2.95872 181.545 2.95872H200.034V27.8966H212.361V39.8371H200.034V70.1641H183.058ZM201.332 89.1844V101.125H140.889C137.645 101.125 134.833 100.914 132.455 100.491C130.148 100.139 128.238 99.4343 126.724 98.3776C125.21 97.3914 124.093 96.0177 123.372 94.2565C122.723 92.5658 122.399 90.382 122.399 87.7051V76.0815C122.399 75.0248 122.219 74.0738 121.858 73.2285C121.498 72.3831 120.921 71.5025 120.128 70.5867C119.479 69.8118 119.299 69.1074 119.587 68.4734C119.876 67.8393 120.416 67.5223 121.209 67.5223H139.591V84.852C139.591 86.7541 139.952 87.9516 140.672 88.4448C141.465 88.9379 142.763 89.1844 144.565 89.1844H201.332ZM140.348 48.9246C144.096 48.9246 146.98 47.7271 148.998 45.3319C151.089 42.8663 152.134 39.9428 152.134 36.5614C152.134 32.9687 151.089 29.9747 148.998 27.5795C146.98 25.1139 144.096 23.8811 140.348 23.8811C136.527 23.8811 133.608 25.1139 131.59 27.5795C129.571 29.9747 128.562 32.9687 128.562 36.5614C128.562 39.9428 129.571 42.8663 131.59 45.3319C133.608 47.7271 136.527 48.9246 140.348 48.9246Z" fill="#1F5BFF"/>
<path d="M78.9331 68.684V13.7362C78.9331 11.9046 78.7169 10.4253 78.2844 9.29813C77.9239 8.171 77.2391 7.04387 76.2299 5.91673C75.5812 5.14183 75.4009 4.4726 75.6893 3.90903C76.0497 3.27501 76.6264 2.95801 77.4193 2.95801H95.9091V68.684H78.9331ZM26.5994 15.3213C26.5994 13.5601 26.4552 12.1512 26.1669 11.0945C25.9506 9.96737 25.3379 8.84023 24.3287 7.7131C23.6799 6.9382 23.4997 6.23374 23.7881 5.59972C24.0764 4.96572 24.617 4.64871 25.41 4.64871H44.116V18.7027C44.116 22.1545 44.909 25.2893 46.4949 28.1072C48.0807 30.8546 50.0991 33.2849 52.55 35.3983C55.073 37.5117 57.8843 39.3433 60.9839 40.8931C64.1557 42.4429 67.3274 43.7462 70.4992 44.8028L65.8497 53.362C65.1288 54.63 63.4348 54.9823 60.7677 54.4187C58.1726 53.8551 54.5323 52.1644 49.8468 49.3466C47.1797 47.7263 44.6206 45.93 42.1697 43.9575C39.7909 41.9146 37.7726 39.766 36.1146 37.5117C32.1499 43.0065 27.2481 47.6559 21.4093 51.46C19.7513 52.5167 18.0213 53.5381 16.2191 54.5244C14.4891 55.4402 12.8311 56.2151 11.2453 56.8491C9.6594 57.4126 8.28978 57.7649 7.13642 57.9058C6.05514 57.9762 5.33429 57.6944 4.97387 57.0604L0 47.8672C3.60425 46.5288 6.99225 44.9437 10.164 43.1121C13.4078 41.2101 16.2552 39.0967 18.7061 36.772C21.157 34.4473 23.0672 31.876 24.4368 29.0582C25.8785 26.2404 26.5994 23.1407 26.5994 19.7593V15.3213ZM35.6821 101.124C32.4383 101.124 29.663 100.948 27.3563 100.596C25.0496 100.244 23.1753 99.5745 21.7336 98.5882C20.364 97.6724 19.3548 96.3692 18.7061 94.6785C18.0573 93.0582 17.7329 90.9096 17.7329 88.2327V71.854C17.7329 70.7974 17.5527 69.8463 17.1923 69.001C16.8319 68.1556 16.2552 67.2751 15.4622 66.3593C14.8135 65.5844 14.6333 64.8799 14.9216 64.2459C15.2099 63.6119 15.7506 63.2949 16.5435 63.2949H34.9252V84.8513C34.9252 86.7533 35.2856 87.9509 36.0065 88.444C36.7994 88.9372 38.0969 89.1837 39.8991 89.1837H97.7473V101.124H35.6821Z" fill="#1F5BFF"/>
</svg>
