<svg width="101" height="50" viewBox="0 0 101 50" fill="none" xmlns="http://www.w3.org/2000/svg">
<path d="M50.5 50C43.9339 50 37.4321 48.7067 31.3658 46.194C25.2995 43.6812 19.7876 39.9983 15.1447 35.3553C10.5017 30.7124 6.81876 25.2005 4.30602 19.1342C1.79329 13.0679 0.499999 6.56609 0.5 0L50.5 4.37114e-06L50.5 50Z" fill="#FF5624"/>
<path d="M100.5 50C93.9339 50 87.4321 48.7067 81.3658 46.194C75.2995 43.6812 69.7876 39.9983 65.1447 35.3553C60.5017 30.7124 56.8188 25.2005 54.306 19.1342C51.7933 13.0679 50.5 6.56609 50.5 0L100.5 4.37114e-06L100.5 50Z" fill="#FF5624"/>
</svg>
