<svg width="832" height="180" viewBox="0 0 832 180" fill="none" xmlns="http://www.w3.org/2000/svg">
<path d="M337.491 4H311.639C311.14 4 310.736 4.4044 310.736 4.90325V149.186C310.736 149.685 311.14 150.089 311.639 150.089H337.491C337.989 150.089 338.393 149.685 338.393 149.186V4.90325C338.393 4.4044 337.989 4 337.491 4Z" fill="#FF5624"/>
<path d="M678.488 50.1622V39.4549C678.488 38.9562 678.084 38.5517 677.586 38.5517H652.131C651.633 38.5517 651.229 38.9562 651.229 39.4549V149.186C651.229 149.684 651.633 150.089 652.131 150.089H678.023C678.521 150.089 678.925 149.684 678.925 149.186V96.4208C678.925 74.7075 690.575 64.8 704.949 64.8C707.721 64.8 710.501 65.2281 712.898 65.9126C713.471 66.0749 714.035 65.6398 714.035 65.0446V40.5228C714.035 40.1112 713.763 39.7466 713.366 39.6478C710.153 38.841 706.053 38.4105 702.599 38.4105C693.529 38.4058 684.87 41.6401 678.49 50.1645L678.488 50.1622Z" fill="#FF5624"/>
<path d="M720.34 39.869L764.703 126.266L738.184 177.683C737.874 178.283 738.311 179 738.985 179H769.645C769.983 179 770.294 178.812 770.446 178.511L797.464 125.951C797.598 125.692 797.598 125.384 797.464 125.125L753.223 39.0433C753.067 38.7423 752.757 38.5541 752.421 38.5541H721.141C720.467 38.5541 720.03 39.2692 720.34 39.869Z" fill="#FF5624"/>
<path d="M787.67 39.4549V84.0223C787.67 84.528 788.086 84.942 788.589 84.9326C813.451 84.448 833.518 64.3625 834.002 39.4714C834.012 38.968 833.598 38.5516 833.093 38.5516H788.572C788.074 38.5516 787.67 38.9562 787.67 39.4549Z" fill="#FF5624"/>
<path d="M62.4304 38.5516H17.9095C17.4043 38.5516 16.9908 38.968 17.0002 39.4714C17.4842 64.3625 37.5488 84.448 62.414 84.9326C62.9168 84.942 63.3327 84.528 63.3327 84.0223V39.4549C63.3327 38.9562 62.9286 38.5516 62.4304 38.5516Z" fill="#FF5624"/>
<path d="M181.996 38.5517H152.086C151.745 38.5517 151.435 38.7422 151.282 39.0456L124.986 90.8931L98.8734 39.3891C98.5397 38.7304 97.5998 38.7304 97.2638 39.3891L55.4028 121.94C55.2759 122.189 55.2759 122.483 55.4028 122.733L69.835 151.199C70.1687 151.858 71.1086 151.858 71.4446 151.199L98.0862 98.6625L124.716 151.244C125.04 151.884 125.952 151.884 126.279 151.244L182.779 39.8219C183.075 39.2385 182.652 38.5493 181.998 38.5493L181.996 38.5517Z" fill="#FF5624"/>
<path d="M492.765 10.4074L441.479 61.7445C440.911 62.3137 441.312 63.2852 442.116 63.2852H466.11V149.183C466.11 149.682 466.514 150.087 467.012 150.087H493.402C493.9 150.087 494.304 149.682 494.304 149.183V63.2876H517.875C518.373 63.2876 518.777 62.883 518.777 62.3843V39.4549C518.777 38.9562 518.373 38.5517 517.875 38.5517H494.304V11.0472C494.304 10.2428 493.334 9.84055 492.765 10.4098V10.4074Z" fill="#FF5624"/>
<path d="M404.093 81.5996C394.142 78.2312 386.279 75.7779 386.004 69.9185C385.983 63.1112 393.707 59.7052 400.902 60.6484C407.672 61.5352 413.859 64.7719 418.318 69.4292C418.671 69.7985 419.251 69.815 419.613 69.4528L436.348 52.705C436.684 52.3686 436.71 51.8253 436.393 51.4701C429.202 43.3926 415.922 35.4233 397.438 35.3927C376.373 35.3927 356.423 48.7298 357.474 70.3795C359.231 106.618 410.87 99.6693 412.796 117.675C412.66 124.415 405.994 127.774 398.806 127.35C389.778 126.816 378.278 120.745 372 114.625C371.643 114.277 371.081 114.274 370.731 114.625L353.862 131.523C353.535 131.85 353.503 132.374 353.794 132.734C376.204 160.338 439.783 162.083 441.353 117.845C441.339 95.0566 420.196 87.045 404.091 81.5949L404.093 81.5996Z" fill="#FF5624"/>
<path d="M579.779 35.6443C547.592 35.6443 521.498 61.7656 521.498 93.9862C521.498 126.207 547.592 152.328 579.779 152.328C611.966 152.328 638.06 126.207 638.06 93.9862C638.06 61.7656 611.966 35.6443 579.779 35.6443ZM579.779 124.01C563.216 124.01 549.789 110.569 549.789 93.9886C549.789 77.4078 563.216 63.9673 579.779 63.9673C596.343 63.9673 609.769 77.4078 609.769 93.9886C609.769 110.569 596.343 124.01 579.779 124.01Z" fill="#FF5624"/>
<path d="M236.947 152.33C224.258 152.269 211.106 147.532 200.671 138.819C189.702 129.662 182.51 116.84 180.414 102.715C179.982 99.8032 179.754 96.8699 179.737 93.9932C179.714 89.6487 180.209 85.2477 181.213 80.9078C187.277 54.6759 211.038 35.6371 237.71 35.6371C237.71 35.6371 238.498 35.6348 238.737 35.6348C265.494 35.6348 288.839 54.6806 294.243 80.9219C295.747 88.2185 295.827 95.7526 294.64 102.492C294.568 102.91 294.199 103.214 293.773 103.214H208.545C211.309 115.883 224.521 124.019 238.173 124.019C250.322 124.019 258.252 119.011 266.319 112.976C266.667 112.714 267.153 112.747 267.461 113.056L284.696 130.283C285.032 130.62 285.046 131.165 284.715 131.509C274.902 141.741 258.851 152.439 236.944 152.333L236.947 152.33ZM265.806 80.4562C261.436 69.5537 250.089 62.1066 238.021 62.1066C225.952 62.1066 213.928 69.3937 209.765 80.4562H265.806Z" fill="#FF5624"/>
</svg>
