<svg width="270" height="76" viewBox="0 0 270 76" fill="none" xmlns="http://www.w3.org/2000/svg">
<path d="M2.525 0.749999H20.4875C20.7875 0.749999 21.0125 0.974998 21.0125 1.275V5.025C21.0125 5.325 20.7875 5.55 20.4875 5.55H7.4V13.0125H18.6125C18.9125 13.0125 19.1375 13.2375 19.1375 13.5375V17.2875C19.1375 17.5875 18.9125 17.8125 18.6125 17.8125H7.4V29.475C7.4 29.775 7.175 30 6.875 30H2.525C2.225 30 2 29.775 2 29.475V1.275C2 0.974998 2.225 0.749999 2.525 0.749999ZM21.7461 15.4125C21.7461 7.35 27.8211 0.374999 36.9711 0.374999C46.1211 0.374999 52.1961 7.35 52.1961 15.4125C52.1961 23.475 46.1211 30.375 36.9711 30.375C27.8211 30.375 21.7461 23.475 21.7461 15.4125ZM27.1461 15.4125C27.1461 21.225 31.5336 25.5 36.9711 25.5C42.4086 25.5 46.7961 21.225 46.7961 15.4125C46.7961 9.6 42.4086 5.2125 36.9711 5.2125C31.5336 5.2125 27.1461 9.6 27.1461 15.4125ZM54.4414 15.4125C54.4414 7.35 60.5164 0.374999 69.6664 0.374999C78.8164 0.374999 84.8914 7.35 84.8914 15.4125C84.8914 23.475 78.8164 30.375 69.6664 30.375C60.5164 30.375 54.4414 23.475 54.4414 15.4125ZM59.8414 15.4125C59.8414 21.225 64.2289 25.5 69.6664 25.5C75.1039 25.5 79.4914 21.225 79.4914 15.4125C79.4914 9.6 75.1039 5.2125 69.6664 5.2125C64.2289 5.2125 59.8414 9.6 59.8414 15.4125ZM88.5992 0.749999H95.3867C105.662 0.749999 111.362 6.1875 111.362 15.3375C111.362 24.45 105.662 30 95.3867 30H88.5992C88.2992 30 88.0742 29.775 88.0742 29.475V1.275C88.0742 0.974998 88.2992 0.749999 88.5992 0.749999ZM93.4742 25.2375H95.3867C102.287 25.2375 105.962 21.6 105.962 15.3375C105.962 9.0375 102.287 5.5125 95.3867 5.5125H93.4742V25.2375ZM139.548 6.45L135.91 8.025C135.648 8.1375 135.348 8.025 135.198 7.7625C134.335 6.075 133.21 5.1375 131.11 5.1375C128.823 5.1375 127.51 6.675 127.51 8.1C127.51 9.9 128.523 10.9875 131.373 12.225L132.573 12.75C138.123 15.1875 140.898 18.075 140.898 22.0125C140.898 26.7375 136.81 30.375 131.185 30.375C126.235 30.375 122.973 27.9 120.985 23.6625C120.873 23.3625 120.985 23.1 121.248 22.95L124.81 21.15C125.073 21 125.335 21.1125 125.485 21.375C126.685 23.8875 128.185 25.65 131.26 25.65C133.773 25.65 135.423 24.1125 135.423 22.2C135.423 20.4 133.923 18.7125 130.66 17.3625L129.385 16.8375C124.548 14.85 122.035 12.2625 122.035 8.3625C122.035 4.0125 125.823 0.374999 131.11 0.374999C135.273 0.374999 138.46 2.175 139.848 5.775C139.96 6.075 139.848 6.3375 139.548 6.45ZM144.058 0.749999H161.833C162.133 0.749999 162.358 0.974998 162.358 1.275V5.025C162.358 5.325 162.133 5.55 161.833 5.55H148.933V12.9H160.333C160.633 12.9 160.858 13.125 160.858 13.425V17.1C160.858 17.4 160.633 17.625 160.333 17.625H148.933V25.2H162.171C162.471 25.2 162.696 25.425 162.696 25.725V29.475C162.696 29.775 162.471 30 162.171 30H144.058C143.758 30 143.533 29.775 143.533 29.475V1.275C143.533 0.974998 143.758 0.749999 144.058 0.749999ZM165.657 0.749999H174.807C181.107 0.749999 184.332 4.35 184.332 9.45C184.332 13.9875 181.482 17.25 176.72 17.925L185.907 29.4C186.207 29.775 186.095 30 185.645 30H180.132C179.907 30 179.682 29.8875 179.532 29.7L170.532 18.075V29.475C170.532 29.775 170.307 30 170.007 30H165.657C165.357 30 165.132 29.775 165.132 29.475V1.275C165.132 0.974998 165.357 0.749999 165.657 0.749999ZM174.395 5.5125H170.532V13.3875H174.695C177.095 13.3875 178.857 12 178.857 9.45C178.857 7.2 177.47 5.5125 174.395 5.5125ZM183.966 0.749999H188.541C188.766 0.749999 188.991 0.899999 189.066 1.0875L197.429 19.8375L205.791 1.0875C205.866 0.899999 206.091 0.749999 206.316 0.749999H210.891C211.191 0.749999 211.341 0.937499 211.191 1.2375L198.179 29.625C197.916 30.1875 197.729 30.375 197.429 30.375C197.091 30.375 196.904 30.1875 196.641 29.625L183.666 1.2375C183.516 0.937499 183.666 0.749999 183.966 0.749999ZM212.652 29.475V1.275C212.652 0.974998 212.877 0.749999 213.177 0.749999H217.527C217.827 0.749999 218.052 0.974998 218.052 1.275V29.475C218.052 29.775 217.827 30 217.527 30H213.177C212.877 30 212.652 29.775 212.652 29.475ZM248.154 23.9625C245.491 28.1625 241.479 30.375 235.891 30.375C227.116 30.375 221.229 23.4375 221.229 15.4125C221.229 7.35 227.116 0.374999 235.891 0.374999C241.441 0.374999 245.491 2.5875 248.079 6.45C248.266 6.7125 248.229 7.0125 247.966 7.2L244.666 9.5625C244.441 9.75 244.141 9.675 243.954 9.4125C242.191 7.0125 239.716 5.2125 236.191 5.2125C230.566 5.2125 226.666 9.525 226.666 15.375C226.666 21.1875 230.566 25.5375 236.191 25.5375C240.241 25.5375 242.491 23.55 244.029 21.1875C244.179 20.925 244.479 20.85 244.741 21.0375L247.966 23.2125C248.229 23.4 248.304 23.7 248.154 23.9625ZM250.772 0.749999H268.547C268.847 0.749999 269.072 0.974998 269.072 1.275V5.025C269.072 5.325 268.847 5.55 268.547 5.55H255.647V12.9H267.047C267.347 12.9 267.572 13.125 267.572 13.425V17.1C267.572 17.4 267.347 17.625 267.047 17.625H255.647V25.2H268.885C269.185 25.2 269.41 25.425 269.41 25.725V29.475C269.41 29.775 269.185 30 268.885 30H250.772C250.472 30 250.247 29.775 250.247 29.475V1.275C250.247 0.974998 250.472 0.749999 250.772 0.749999ZM19.925 61.2C20.0375 60.9 20.3 60.7875 20.6 60.9L24.1625 62.3625C24.425 62.475 24.575 62.775 24.4625 63.075C23.675 65.325 22.6625 67.425 21.3875 69.2625L24.1625 72.1125C24.3875 72.3375 24.3875 72.6375 24.1625 72.825L21.5375 75.2625C21.3125 75.4875 21.0125 75.4875 20.7875 75.2625L18.2375 72.6C16.025 74.325 13.2875 75.375 9.9875 75.375C4.175 75.375 0.35 71.85 0.35 67.275C0.35 64.2 1.775 61.6875 5.75 59.4375C3.65 56.9625 3.0125 54.9375 3.0125 52.9125C3.0125 48.7125 6.425 45.375 11 45.375C15.5 45.375 18.9125 48.7125 18.9125 52.9125C18.9125 55.875 17.5625 58.275 13.0625 60.6375L17.8625 65.5875C18.6875 64.2375 19.3625 62.7375 19.925 61.2ZM13.8125 52.9125C13.8125 51.225 12.6125 49.875 11 49.875C9.2375 49.875 8.15 51.225 8.15 52.9125C8.15 54.525 8.675 55.8 9.9875 57.375C12.6875 55.9875 13.8125 54.825 13.8125 52.9125ZM5.525 67.3125C5.525 69.15 7.25 70.875 9.95 70.875C11.9 70.875 13.55 70.2 14.9 69.1125L8.7875 62.7C6.2375 64.125 5.525 65.4375 5.525 67.3125ZM61.9572 68.9625C59.2947 73.1625 55.2822 75.375 49.6947 75.375C40.9197 75.375 35.0322 68.4375 35.0322 60.4125C35.0322 52.35 40.9197 45.375 49.6947 45.375C55.2447 45.375 59.2947 47.5875 61.8822 51.45C62.0697 51.7125 62.0322 52.0125 61.7697 52.2L58.4697 54.5625C58.2447 54.75 57.9447 54.675 57.7572 54.4125C55.9947 52.0125 53.5197 50.2125 49.9947 50.2125C44.3697 50.2125 40.4697 54.525 40.4697 60.375C40.4697 66.1875 44.3697 70.5375 49.9947 70.5375C54.0447 70.5375 56.2947 68.55 57.8322 66.1875C57.9822 65.925 58.2822 65.85 58.5447 66.0375L61.7697 68.2125C62.0322 68.4 62.1072 68.7 61.9572 68.9625ZM61.1633 74.325L74.5508 46.125C74.7758 45.6375 75.0008 45.375 75.3383 45.375C75.6758 45.375 75.9008 45.6375 76.1258 46.125L89.4758 74.325C89.6633 74.7375 89.4758 75 89.0258 75H84.3758C84.1508 75 83.9258 74.85 83.8508 74.6625L81.0008 68.4H69.6383L66.7883 74.6625C66.6758 74.85 66.4883 75 66.2633 75H61.5758C61.1258 75 60.9758 74.7375 61.1633 74.325ZM71.7008 63.6H78.9383L75.3383 55.6875L71.7008 63.6ZM91.192 45.75H100.342C106.642 45.75 109.867 49.35 109.867 54.45C109.867 58.9875 107.017 62.25 102.254 62.925L111.442 74.4C111.742 74.775 111.629 75 111.179 75H105.667C105.442 75 105.217 74.8875 105.067 74.7L96.067 63.075V74.475C96.067 74.775 95.842 75 95.542 75H91.192C90.892 75 90.667 74.775 90.667 74.475V46.275C90.667 45.975 90.892 45.75 91.192 45.75ZM99.9295 50.5125H96.067V58.3875H100.229C102.629 58.3875 104.392 57 104.392 54.45C104.392 52.2 103.004 50.5125 99.9295 50.5125ZM114.256 45.75H132.031C132.331 45.75 132.556 45.975 132.556 46.275V50.025C132.556 50.325 132.331 50.55 132.031 50.55H119.131V57.9H130.531C130.831 57.9 131.056 58.125 131.056 58.425V62.1C131.056 62.4 130.831 62.625 130.531 62.625H119.131V70.2H132.368C132.668 70.2 132.893 70.425 132.893 70.725V74.475C132.893 74.775 132.668 75 132.368 75H114.256C113.956 75 113.731 74.775 113.731 74.475V46.275C113.731 45.975 113.956 45.75 114.256 45.75Z" fill="#EAEAEA"/>
</svg>
