<svg width="343" height="64" viewBox="0 0 343 64" fill="none" xmlns="http://www.w3.org/2000/svg">
<path d="M326.929 34.2601V26.5653H323.689V22.0295H326.929V13.3223H332.438V34.2601H326.929ZM308.177 31.4657C312.146 29.9267 314.576 28.0638 316.075 26.1603L309.23 26.6058L308.744 22.2725L317.938 22.1105C318.019 21.665 318.059 21.26 318.059 20.855V19.3161H309.635V14.7802H323.405V20.5715C323.405 25.1479 320.125 31.5062 310.688 35.3131L308.177 31.4657ZM312.875 47.0577C320.57 45.3162 324.904 42.2788 324.945 38.7959V36.2445H330.696V38.7554C330.696 39.4439 330.574 40.2539 330.291 41.0639C332.802 43.0483 338.513 45.9642 342.563 46.9767L340.457 51.3505C337.338 50.6216 331.303 47.6246 327.78 44.9922C325.471 47.2602 321.583 49.6091 315.021 51.5125L312.875 47.0577ZM335.516 37.824V13.3223H341.146V37.824H335.516Z" fill="#2644F2"/>
<path d="M271.565 47.8271V43.1293H285.741V35.2321H274.765V30.5342H279.625L278.937 21.503L284.648 21.3005L285.134 30.5342H292.019L292.505 21.3005L298.216 21.503L297.528 30.5342H302.388V35.2321H291.452V43.1293H305.588V47.8271H271.565ZM274.927 20.0045V15.3067H302.226V20.0045H274.927Z" fill="#2644F2"/>
<path d="M253.313 51.5118V30.3596H248.227V25.6221H253.313V13.363H259.142V51.5118H253.313ZM228.877 36.5099V15.233H247.235V20.0536H234.707V25.7052H246.16V30.5258H234.707V35.3463C234.707 36.0112 235.12 36.4268 235.782 36.4268H248.02V41.2474H233.715C230.572 41.2474 228.877 39.6682 228.877 36.5099Z" fill="black"/>
<path d="M215.277 51.4711V13.3223H221.107V51.4711H215.277ZM189.891 28.0333C189.891 19.8882 194.48 15.4001 200.31 15.4001C206.099 15.4001 210.688 19.8882 210.688 28.0333C210.688 36.2199 206.099 40.708 200.31 40.708C194.48 40.708 189.891 36.2199 189.891 28.0333ZM195.721 28.0333C195.721 33.4356 197.788 35.929 200.31 35.929C202.791 35.929 204.858 33.4356 204.858 28.0333C204.858 22.6725 202.791 20.1791 200.31 20.1791C197.788 20.1791 195.721 22.6725 195.721 28.0333Z" fill="black"/>
<path d="M169.059 51.1387V29.9864H164.18V25.1659H169.059V13.3223H174.765V51.1387H169.059ZM151.776 36.0952V15.3585H165.627V20.1791H157.44V34.8901C157.44 35.555 157.689 35.8043 158.35 35.8043H166.247V40.6249H156.407C153.265 40.6249 151.776 39.2535 151.776 36.0952ZM177.907 51.4711V13.3223H183.737V51.4711H177.907Z" fill="black"/>
<path d="M139.206 51.4711V13.3223H145.036V51.4711H139.206ZM113.82 28.0333C113.82 19.8882 118.409 15.4001 124.239 15.4001C130.027 15.4001 134.617 19.8882 134.617 28.0333C134.617 36.2199 130.027 40.708 124.239 40.708C118.409 40.708 113.82 36.2199 113.82 28.0333ZM119.649 28.0333C119.649 33.4356 121.717 35.929 124.239 35.929C126.72 35.929 128.787 33.4356 128.787 28.0333C128.787 22.6725 126.72 20.1791 124.239 20.1791C121.717 20.1791 119.649 22.6725 119.649 28.0333Z" fill="black"/>
<path d="M99.3117 51.388V13.3223H105.141V24.7919H110.02V29.5293H105.141V51.388H99.3117ZM76.3232 36.0537V15.3585H90.2155C93.3578 15.3585 94.929 16.813 94.929 19.9713V40.6664H81.0367C77.8944 40.6664 76.3232 39.212 76.3232 36.0537ZM82.153 34.8901C82.153 35.555 82.4425 35.8459 83.104 35.8459H89.0992V21.1349C89.0992 20.47 88.8098 20.1791 88.1482 20.1791H82.153V34.8901Z" fill="black"/>
<path d="M27.5507 4.74913C30.3016 3.15784 33.6914 3.15784 36.4423 4.74913L53.3312 14.5186C56.0807 16.1091 57.7743 19.0475 57.7743 22.2275V41.7728C57.7743 44.9527 56.0807 47.8911 53.3312 49.4816L36.4423 59.2511C33.6914 60.8424 30.3016 60.8424 27.5507 59.2511L10.6618 49.4816C7.91237 47.8911 6.21875 44.9527 6.21875 41.7728V22.2275C6.21875 19.0475 7.91237 16.1091 10.6618 14.5186L27.5507 4.74913Z" fill="url(#paint0_linear_1771_12762)"/>
<path fill-rule="evenodd" clip-rule="evenodd" d="M46.4199 31.9988C46.4199 23.6532 39.6544 16.8877 31.3088 16.8877H19.5557L19.5557 47.1099H31.3088C39.6544 47.1099 46.4199 40.3445 46.4199 31.9988ZM37.6051 31.9988C37.6051 28.7533 34.9741 26.1223 31.7286 26.1223H27.531V37.8754H31.7286C34.9741 37.8754 37.6051 35.2443 37.6051 31.9988Z" fill="white"/>
<mask id="mask0_1771_12762" style="mask-type:alpha" maskUnits="userSpaceOnUse" x="6" y="3" width="52" height="58">
<path d="M27.5527 4.74913C30.3036 3.15784 33.6934 3.15784 36.4443 4.74913L53.3332 14.5186C56.0826 16.1091 57.7763 19.0475 57.7763 22.2275V41.7728C57.7763 44.9527 56.0826 47.8911 53.3332 49.4816L36.4443 59.2511C33.6934 60.8424 30.3036 60.8424 27.5527 59.2511L10.6638 49.4816C7.91432 47.8911 6.2207 44.9527 6.2207 41.7728V22.2275C6.2207 19.0475 7.91432 16.1091 10.6638 14.5186L27.5527 4.74913Z" fill="url(#paint1_linear_1771_12762)"/>
</mask>
<g mask="url(#mask0_1771_12762)">
<g filter="url(#filter0_d_1771_12762)">
<path d="M57.7763 41.7713V19.7764L31.9985 36.8875L6.2207 19.7764V41.7713C6.2207 44.9512 7.91432 47.8897 10.6638 49.4801L27.5527 59.2496C30.3036 60.8409 33.6934 60.8409 36.4443 59.2496L53.3332 49.4801C56.0826 47.8897 57.7763 44.9512 57.7763 41.7713Z" fill="#5A8BFF"/>
<path d="M56.9277 41.7715C56.9277 44.5589 55.4895 47.141 53.1387 48.6074L52.9082 48.7451L36.0195 58.5146C33.6093 59.9089 30.657 59.9525 28.2129 58.6455L27.9775 58.5146L11.0889 48.7451C8.60209 47.3066 7.06939 44.6488 7.06934 41.7715V21.3584L31.5293 37.5947L31.998 37.9062L32.4678 37.5947L56.9277 21.3574V41.7715Z" stroke="url(#paint2_linear_1771_12762)" stroke-width="1.69727"/>
</g>
</g>
<mask id="mask1_1771_12762" style="mask-type:alpha" maskUnits="userSpaceOnUse" x="6" y="19" width="52" height="42">
<path d="M57.7763 41.7713V19.7764L31.9985 36.8875L6.2207 19.7764V41.7713C6.2207 44.9512 7.91432 47.8897 10.6638 49.4801L27.5527 59.2496C30.3036 60.8409 33.6934 60.8409 36.4443 59.2496L53.3332 49.4801C56.0826 47.8897 57.7763 44.9512 57.7763 41.7713Z" fill="#5A8BFF"/>
</mask>
<g mask="url(#mask1_1771_12762)">
<g opacity="0.5" filter="url(#filter1_f_1771_12762)">
<path fill-rule="evenodd" clip-rule="evenodd" d="M46.3249 31.9988C46.3249 23.6532 39.6091 16.8877 31.3249 16.8877H19.6582V47.1099H31.3249C39.6091 47.1099 46.3249 40.3444 46.3249 31.9988ZM37.5749 31.9988C37.5749 28.7533 34.9632 26.1223 31.7416 26.1223H27.5749V37.8754H31.7416C34.9632 37.8754 37.5749 35.2443 37.5749 31.9988Z" fill="white"/>
</g>
</g>
<defs>
<filter id="filter0_d_1771_12762" x="-0.568392" y="6.19818" width="65.1339" height="54.2447" filterUnits="userSpaceOnUse" color-interpolation-filters="sRGB">
<feFlood flood-opacity="0" result="BackgroundImageFix"/>
<feColorMatrix in="SourceAlpha" type="matrix" values="0 0 0 0 0 0 0 0 0 0 0 0 0 0 0 0 0 0 127 0" result="hardAlpha"/>
<feOffset dy="-6.7891"/>
<feGaussianBlur stdDeviation="3.39455"/>
<feComposite in2="hardAlpha" operator="out"/>
<feColorMatrix type="matrix" values="0 0 0 0 0 0 0 0 0 0.144227 0 0 0 0 0.515098 0 0 0 0.4 0"/>
<feBlend mode="normal" in2="BackgroundImageFix" result="effect1_dropShadow_1771_12762"/>
<feBlend mode="normal" in="SourceGraphic" in2="effect1_dropShadow_1771_12762" result="shape"/>
</filter>
<filter id="filter1_f_1771_12762" x="12.8691" y="10.0986" width="40.2452" height="43.8004" filterUnits="userSpaceOnUse" color-interpolation-filters="sRGB">
<feFlood flood-opacity="0" result="BackgroundImageFix"/>
<feBlend mode="normal" in="SourceGraphic" in2="BackgroundImageFix" result="shape"/>
<feGaussianBlur stdDeviation="3.39455" result="effect1_foregroundBlur_1771_12762"/>
</filter>
<linearGradient id="paint0_linear_1771_12762" x1="31.9965" y1="1.63096" x2="31.9965" y2="62.3687" gradientUnits="userSpaceOnUse">
<stop stop-color="#4385FC"/>
<stop offset="1" stop-color="#2B4EF4"/>
</linearGradient>
<linearGradient id="paint1_linear_1771_12762" x1="31.9985" y1="1.63096" x2="31.9985" y2="62.3687" gradientUnits="userSpaceOnUse">
<stop stop-color="#4385FC"/>
<stop offset="1" stop-color="#2B4EF4"/>
</linearGradient>
<linearGradient id="paint2_linear_1771_12762" x1="31.9985" y1="19.8085" x2="31.9985" y2="47.7942" gradientUnits="userSpaceOnUse">
<stop offset="0.0001" stop-color="#8DB3FE"/>
<stop offset="1" stop-color="#5E95FF"/>
</linearGradient>
</defs>
</svg>
