<svg width="80" height="18" viewBox="0 0 80 18" fill="none" xmlns="http://www.w3.org/2000/svg">
<path d="M73.36 3.84073V7.24873H78.856V10.4167H73.36V14.1127H79.576V17.4007H69.256V0.552734H79.576V3.84073H73.36Z" fill="#111111"/>
<path d="M67.7806 0.552734L61.8046 17.4007H56.6686L50.6926 0.552734H55.0606L59.2366 13.2727L63.4366 0.552734H67.7806Z" fill="#111111"/>
<path d="M49.2306 0.552734V17.4007H45.1266V0.552734H49.2306Z" fill="#111111"/>
<path d="M43.3069 0.552734V3.84073H38.8429V17.4007H34.7389V3.84073H30.2749V0.552734H43.3069Z" fill="#111111"/>
<path d="M22.5465 3.84073V7.24873H28.0425V10.4167H22.5465V14.1127H28.7625V17.4007H18.4425V0.552734H28.7625V3.84073H22.5465Z" fill="#111111"/>
<path d="M15.7076 17.4007H11.6036L4.73962 7.00873V17.4007H0.63562V0.552734H4.73962L11.6036 10.9927V0.552734H15.7076V17.4007Z" fill="#111111"/>
</svg>
