<svg width="445" height="80" viewBox="0 0 445 80" fill="none" xmlns="http://www.w3.org/2000/svg">
<path d="M433.016 68.6398C430.616 68.6398 428.643 67.9464 427.096 66.5598C425.603 65.1198 424.856 63.3598 424.856 61.2798C424.856 59.1464 425.603 57.3598 427.096 55.9198C428.643 54.4798 430.616 53.7598 433.016 53.7598C435.363 53.7598 437.283 54.4798 438.776 55.9198C440.323 57.3598 441.096 59.1464 441.096 61.2798C441.096 63.3598 440.323 65.1198 438.776 66.5598C437.283 67.9464 435.363 68.6398 433.016 68.6398Z" fill="white"/>
<path d="M364.959 39.8392C364.959 34.2926 366.159 29.3592 368.559 25.0392C370.959 20.6659 374.292 17.2792 378.559 14.8792C382.879 12.4259 387.759 11.1992 393.199 11.1992C399.866 11.1992 405.572 12.9592 410.319 16.4792C415.066 19.9992 418.239 24.7992 419.839 30.8792H404.799C403.679 28.5326 402.079 26.7459 399.999 25.5192C397.972 24.2926 395.652 23.6792 393.039 23.6792C388.826 23.6792 385.412 25.1459 382.799 28.0792C380.186 31.0126 378.879 34.9326 378.879 39.8392C378.879 44.7459 380.186 48.6659 382.799 51.5992C385.412 54.5326 388.826 55.9992 393.039 55.9992C395.652 55.9992 397.972 55.3859 399.999 54.1592C402.079 52.9326 403.679 51.1459 404.799 48.7992H419.839C418.239 54.8792 415.066 59.6792 410.319 63.1992C405.572 66.6659 399.866 68.3992 393.199 68.3992C387.759 68.3992 382.879 67.1992 378.559 64.7992C374.292 62.3459 370.959 58.9592 368.559 54.6392C366.159 50.3192 364.959 45.3859 364.959 39.8392Z" fill="white"/>
<path d="M358.963 67.9998H345.283L322.403 33.3598V67.9998H308.723V11.8398H322.403L345.283 46.6398V11.8398H358.963V67.9998Z" fill="white"/>
<path d="M300.409 11.8398V67.9998H286.729V11.8398H300.409Z" fill="white"/>
<path d="M243.374 22.7998V34.1598H261.694V44.7198H243.374V57.0398H264.094V67.9998H229.694V11.8398H264.094V22.7998H243.374Z" fill="white"/>
<path d="M225.577 11.8398L205.657 67.9998H188.537L168.617 11.8398H183.177L197.097 54.2398L211.097 11.8398H225.577Z" fill="white"/>
<path d="M164.543 11.8398V67.9998H150.863V11.8398H164.543Z" fill="white"/>
<path d="M145.598 11.8398V22.7998H130.718V67.9998H117.038V22.7998H102.158V11.8398H145.598Z" fill="white"/>
<path d="M77.1961 22.7998V34.1598H95.5161V44.7198H77.1961V57.0398H97.9161V67.9998H63.5161V11.8398H97.9161V22.7998H77.1961Z" fill="white"/>
<path d="M55.2 67.9998H41.52L18.64 33.3598V67.9998H4.95996V11.8398H18.64L41.52 46.6398V11.8398H55.2V67.9998Z" fill="white"/>
</svg>
