<svg width="32" height="33" viewBox="0 0 32 33" fill="none" xmlns="http://www.w3.org/2000/svg">
<path d="M11.3333 25.8327V28.766C11.3333 29.1394 11.3333 29.3261 11.2607 29.4687C11.1968 29.5941 11.0948 29.6961 10.9693 29.76C10.8267 29.8327 10.64 29.8327 10.2667 29.8327H7.73333C7.35997 29.8327 7.17328 29.8327 7.03067 29.76C6.90523 29.6961 6.80324 29.5941 6.73933 29.4687C6.66667 29.3261 6.66667 29.1394 6.66667 28.766V25.8327M25.3333 25.8327V28.766C25.3333 29.1394 25.3333 29.3261 25.2607 29.4687C25.1968 29.5941 25.0948 29.6961 24.9693 29.76C24.8267 29.8327 24.64 29.8327 24.2667 29.8327H21.7333C21.36 29.8327 21.1733 29.8327 21.0307 29.76C20.9052 29.6961 20.8032 29.5941 20.7393 29.4687C20.6667 29.3261 20.6667 29.1394 20.6667 28.766V25.8327M4 16.4993H28M4 7.83268H28M8.66667 21.166H10.6667M21.3333 21.166H23.3333M10.4 25.8327H21.6C23.8402 25.8327 24.9603 25.8327 25.816 25.3967C26.5686 25.0132 27.1805 24.4013 27.564 23.6486C28 22.793 28 21.6729 28 19.4327V9.56602C28 7.32581 28 6.2057 27.564 5.35005C27.1805 4.59741 26.5686 3.98548 25.816 3.60199C24.9603 3.16602 23.8402 3.16602 21.6 3.16602H10.4C8.15979 3.16602 7.03969 3.16602 6.18404 3.60199C5.43139 3.98548 4.81947 4.59741 4.43597 5.35005C4 6.2057 4 7.32581 4 9.56601V19.4327C4 21.6729 4 22.793 4.43597 23.6486C4.81947 24.4013 5.43139 25.0132 6.18404 25.3967C7.03969 25.8327 8.15979 25.8327 10.4 25.8327Z" stroke="#111111" stroke-width="2" stroke-linecap="round" stroke-linejoin="round"/>
</svg>
