<svg width="273" height="80" viewBox="0 0 273 80" fill="none" xmlns="http://www.w3.org/2000/svg">
<path d="M247.867 22.7998V34.1598H266.187V44.7198H247.867V57.0398H268.587V67.9998H234.187V11.8398H268.587V22.7998H247.867Z" fill="white"/>
<path d="M229.269 11.8398L209.349 67.9998H192.229L172.309 11.8398H186.869L200.789 54.2398L214.789 11.8398H229.269Z" fill="white"/>
<path d="M167.435 11.8398V67.9998H153.755V11.8398H167.435Z" fill="white"/>
<path d="M147.69 11.8398V22.7998H132.81V67.9998H119.13V22.7998H104.25V11.8398H147.69Z" fill="white"/>
<path d="M78.4883 22.7998V34.1598H96.8083V44.7198H78.4883V57.0398H99.2084V67.9998H64.8083V11.8398H99.2084V22.7998H78.4883Z" fill="white"/>
<path d="M55.6922 67.9998H42.0122L19.1321 33.3598V67.9998H5.45215V11.8398H19.1321L42.0122 46.6398V11.8398H55.6922V67.9998Z" fill="white"/>
</svg>
