<svg width="382" height="271" viewBox="0 0 382 271" fill="none" xmlns="http://www.w3.org/2000/svg">
<path d="M381.916 189.272C381.747 167.52 377.954 146.696 371.042 127.305C368.767 120.982 366.238 114.743 363.288 108.673C344.491 69.3014 312.63 37.433 273.267 18.6323C267.198 15.7658 260.96 13.1521 254.639 10.8758C234.746 3.87825 213.337 0 191 0C168.663 0 147.254 3.87825 127.361 10.8758C120.955 13.1521 114.718 15.6815 108.649 18.6323C69.3703 37.5173 37.4245 69.3857 18.628 108.673C15.7621 114.743 13.1492 120.982 10.8733 127.305C3.87732 147.202 0 168.7 0 190.958V382H127.361V190.958C127.361 155.801 155.851 127.305 191 127.305C226.149 127.305 254.639 155.886 254.639 190.958V382H382V190.958C382 190.368 382 189.862 382 189.272H381.916Z" fill="#FED80F"/>
</svg>
