<svg width="372" height="319" viewBox="0 0 372 319" fill="none" xmlns="http://www.w3.org/2000/svg">
<path d="M371.174 184.322C371.01 163.208 367.327 142.993 360.616 124.17C358.407 118.032 355.951 111.976 353.087 106.084C334.837 67.8643 303.901 36.9289 265.682 18.6786C259.79 15.896 253.733 13.3589 247.595 11.1492C228.281 4.3565 207.494 0.591797 185.806 0.591797C164.119 0.591797 143.331 4.3565 124.017 11.1492C117.797 13.3589 111.741 15.8142 105.849 18.6786C67.7114 37.0107 36.6941 67.9461 18.4438 106.084C15.6612 111.976 13.1242 118.032 10.9145 124.17C4.12181 143.484 0.357178 164.353 0.357178 185.959V371.408H124.017V185.959C124.017 151.832 151.679 124.17 185.806 124.17C219.934 124.17 247.595 151.914 247.595 185.959V371.408H371.255V185.959C371.255 185.386 371.255 184.895 371.255 184.322H371.174Z" fill="#FED80F"/>
</svg>
