<svg width="57" height="56" viewBox="0 0 57 56" fill="none" xmlns="http://www.w3.org/2000/svg">
<path fill-rule="evenodd" clip-rule="evenodd" d="M20.5719 30.3295C21.0845 29.8902 21.9155 29.8902 22.4281 30.3295L28.5 35.5339L34.572 30.3295C35.0845 29.8902 35.9154 29.8902 36.428 30.3295C36.9406 30.7689 36.9406 31.4811 36.428 31.9204L29.428 37.9205C28.9154 38.3598 28.0845 38.3598 27.572 37.9205L20.5719 31.9204C20.0594 31.4811 20.0594 30.7689 20.5719 30.3295Z" fill="white"/>
<path fill-rule="evenodd" clip-rule="evenodd" d="M20.5719 22.3295C21.0845 21.8902 21.9155 21.8902 22.4281 22.3295L28.5 27.5339L34.572 22.3295C35.0845 21.8902 35.9154 21.8902 36.428 22.3295C36.9406 22.7689 36.9406 23.4811 36.428 23.9204L29.428 29.9205C28.9154 30.3598 28.0845 30.3598 27.572 29.9205L20.5719 23.9204C20.0594 23.4811 20.0594 22.7689 20.5719 22.3295Z" fill="white" fill-opacity="0.56"/>
</svg>
