<svg width="677" height="570" viewBox="0 0 677 570" fill="none" xmlns="http://www.w3.org/2000/svg">
<g clip-path="url(#clip0_563_11111)">
<rect width="677" height="570" rx="20" fill="#0043F5"/>
<path d="M442.946 289.339V303.523C441.621 303.584 440.46 303.68 439.292 303.686C424.674 303.699 410.062 303.765 395.444 303.626C392.916 303.602 392.021 304.43 391.416 306.788C386.529 325.78 370.024 340.393 350.713 342.225C332.496 343.955 317.582 337.431 306.423 322.744C305.818 321.952 305.25 321.136 305.099 320.924C299.819 323.192 294.992 325.997 289.785 327.364C277.084 330.701 264.643 329.105 252.729 323.633C251.283 322.968 249.935 322.019 248.701 321.003C246.723 319.383 245.991 317.412 247.164 314.86C248.368 312.236 249.312 309.497 250.14 307.399C256.285 309.823 261.982 312.695 268.024 314.243C272.355 315.356 277.181 315.126 281.711 314.703C286.126 314.292 289.301 311.577 290.329 306.982C291.339 302.453 290.638 298.136 287.021 295.119C284.13 292.706 280.616 291.032 277.344 289.091C270.957 285.3 264.147 282.095 258.257 277.657C250.642 271.944 246.929 263.739 247.981 254.101C249.1 243.841 256.176 236.833 267.317 234.445C279.37 231.863 291.128 233.429 302.552 237.728C303.544 238.103 304.627 239.669 304.712 240.751C304.978 244.361 304.929 248.006 304.742 251.622C304.681 252.789 304.119 254.482 303.272 254.905C302.48 255.304 300.774 254.645 299.861 253.95C293.656 249.198 286.821 246.495 278.886 246.815C273.534 247.033 269.433 249.349 268.127 253.134C266.524 257.789 268.127 262.91 272.397 266.29C274.205 267.723 276.086 269.138 278.106 270.239C284.977 273.981 291.932 277.585 298.881 281.261C310.475 240.727 366.456 233.798 388.156 273.31C388.156 271.811 388.156 270.976 388.156 270.142C388.156 255.226 388.132 240.316 388.174 225.399C388.187 222.394 387.733 219.704 385.743 217.237C383.935 214.988 384.933 213.259 387.914 213.222C393.358 213.156 398.807 213.331 404.244 213.144C406.996 213.053 407.879 213.893 407.867 216.711C407.764 239.384 407.8 262.058 407.819 284.731C407.819 290.004 407.323 289.321 412.572 289.339C422.539 289.369 432.507 289.345 442.952 289.345L442.946 289.339ZM376.139 294.617C376.097 277.24 362.464 263.684 345.07 263.721C327.767 263.757 314.104 277.494 314.074 294.798C314.044 312.52 329.158 326.124 345.542 325.755C362.646 325.368 376.181 311.891 376.139 294.617Z" fill="white"/>
<path d="M477.041 368.224C477.041 367.283 476.985 366.531 476.873 365.966C476.76 365.401 476.441 364.799 475.916 364.159C475.579 363.707 475.485 363.331 475.635 363.03C475.785 362.691 476.066 362.522 476.479 362.522H485.818V379.008H499.151V362.522H507.928V379.008H514.679V385.389H470.009V379.008H477.041V368.224ZM519.18 393.519V399.899H465.564V393.519H519.18ZM515.073 360.546H469.615V354.166H515.073V360.546Z" fill="white"/>
<path d="M451.223 404.867V357.553C451.223 356.574 451.129 355.803 450.942 355.238C450.754 354.636 450.398 354.015 449.873 353.375C449.498 352.961 449.385 352.584 449.535 352.245C449.723 351.907 450.023 351.737 450.435 351.737H460.056V404.867H451.223ZM411.447 374.661C411.447 370.821 411.747 367.528 412.347 364.78C412.985 362.032 413.96 359.774 415.273 358.004C416.623 356.198 418.311 354.88 420.336 354.052C422.362 353.186 424.781 352.754 427.594 352.754C430.332 352.754 432.695 353.186 434.683 354.052C436.708 354.88 438.358 356.179 439.633 357.948C440.946 359.717 441.903 361.976 442.503 364.723C443.14 367.471 443.459 370.765 443.459 374.604C443.459 378.443 443.14 381.756 442.503 384.541C441.903 387.327 440.946 389.604 439.633 391.373C438.358 393.142 436.708 394.46 434.683 395.325C432.695 396.153 430.332 396.568 427.594 396.568C424.781 396.568 422.362 396.153 420.336 395.325C418.311 394.46 416.623 393.142 415.273 391.373C413.96 389.566 412.985 387.289 412.347 384.541C411.747 381.793 411.447 378.5 411.447 374.661ZM434.795 374.661C434.795 369.203 434.195 365.269 432.995 362.86C431.832 360.414 430.013 359.19 427.538 359.19C424.875 359.19 422.962 360.414 421.799 362.86C420.636 365.307 420.055 369.24 420.055 374.661C420.055 380.081 420.636 384.014 421.799 386.461C422.962 388.908 424.875 390.131 427.538 390.131C428.775 390.131 429.844 389.849 430.744 389.284C431.682 388.682 432.432 387.76 432.995 386.517C433.595 385.275 434.045 383.676 434.345 381.718C434.645 379.761 434.795 377.408 434.795 374.661Z" fill="white"/>
<path d="M389.278 394.478C388.453 395.081 387.347 395.514 385.959 395.777C384.571 396.003 382.921 396.116 381.008 396.116H363.736C361.561 396.116 359.892 395.532 358.729 394.366C357.567 393.161 356.985 391.599 356.985 389.679V377.427C356.985 376.486 356.873 375.715 356.648 375.112C356.423 374.472 356.048 373.832 355.522 373.193C355.185 372.741 355.091 372.364 355.241 372.063C355.391 371.725 355.672 371.555 356.085 371.555H375.382V359.981H356.873V353.883H382.865C383.315 353.883 383.634 353.977 383.821 354.165C384.046 354.316 384.159 354.636 384.159 355.125V377.597H365.762V387.872C365.762 388.55 365.968 389.077 366.381 389.453C366.793 389.792 367.318 389.962 367.956 389.962H389.278V394.478ZM392.879 404.867V357.553C392.879 356.574 392.785 355.803 392.598 355.238C392.41 354.636 392.054 354.015 391.529 353.375C391.154 352.961 391.041 352.584 391.191 352.245C391.379 351.907 391.679 351.737 392.091 351.737H401.712V369.861H408.857V376.354H401.712V404.867H392.879Z" fill="white"/>
<path d="M221.645 171.861C221.645 171.024 221.579 170.365 221.447 169.882C221.348 169.367 221.068 168.836 220.607 168.289C220.278 167.935 220.179 167.629 220.311 167.371C220.476 167.082 220.739 166.937 221.101 166.937H229.548V172.344H240.762V177.654H235.575C236.333 178.491 236.925 179.44 237.354 180.503C237.815 181.532 238.045 182.659 238.045 183.882C238.045 185.394 237.765 186.811 237.205 188.13C236.646 189.417 235.822 190.544 234.735 191.509C233.649 192.475 232.298 193.231 230.685 193.778C229.104 194.326 227.293 194.599 225.251 194.599C223.209 194.599 221.398 194.326 219.817 193.778C218.236 193.231 216.902 192.475 215.816 191.509C214.729 190.544 213.889 189.417 213.296 188.13C212.736 186.811 212.456 185.394 212.456 183.882C212.456 182.627 212.654 181.484 213.049 180.454C213.477 179.424 214.07 178.491 214.828 177.654H209.641V172.344H221.645V171.861ZM244.763 198.992V173.213C244.763 172.376 244.681 171.716 244.516 171.234C244.352 170.719 244.039 170.188 243.578 169.64C243.249 169.286 243.15 168.981 243.281 168.723C243.446 168.434 243.71 168.289 244.072 168.289H252.519V179.682H258.151V185.137H252.519V198.992H244.763ZM253.112 207.682V213.137H225.498C224.016 213.137 222.731 213.04 221.645 212.847C220.591 212.686 219.718 212.365 219.026 211.882C218.335 211.431 217.824 210.804 217.495 209.999C217.199 209.227 217.051 208.229 217.051 207.006V201.696C217.051 201.213 216.968 200.778 216.804 200.392C216.639 200.006 216.375 199.604 216.013 199.185C215.717 198.831 215.634 198.509 215.766 198.22C215.898 197.93 216.145 197.785 216.507 197.785H224.905V205.703C224.905 206.571 225.07 207.119 225.399 207.344C225.761 207.569 226.354 207.682 227.177 207.682H253.112ZM225.251 189.289C226.963 189.289 228.281 188.742 229.203 187.647C230.158 186.521 230.635 185.185 230.635 183.64C230.635 181.999 230.158 180.631 229.203 179.537C228.281 178.411 226.963 177.847 225.251 177.847C223.505 177.847 222.172 178.411 221.249 179.537C220.327 180.631 219.866 181.999 219.866 183.64C219.866 185.185 220.327 186.521 221.249 187.647C222.172 188.742 223.505 189.289 225.251 189.289Z" fill="white"/>
<path d="M197.192 198.317V173.213C197.192 172.376 197.093 171.701 196.896 171.186C196.731 170.671 196.418 170.156 195.957 169.641C195.661 169.287 195.579 168.981 195.71 168.724C195.875 168.434 196.138 168.289 196.501 168.289H204.948V198.317H197.192ZM173.283 173.937C173.283 173.133 173.217 172.489 173.085 172.006C172.987 171.491 172.707 170.976 172.246 170.461C171.949 170.107 171.867 169.786 171.999 169.496C172.13 169.206 172.377 169.061 172.74 169.061H181.286V175.482C181.286 177.059 181.648 178.491 182.373 179.779C183.097 181.034 184.019 182.144 185.139 183.11C186.292 184.075 187.576 184.912 188.992 185.62C190.441 186.328 191.89 186.924 193.339 187.406L191.215 191.317C190.886 191.896 190.112 192.057 188.893 191.799C187.708 191.542 186.045 190.77 183.904 189.482C182.685 188.742 181.516 187.921 180.397 187.02C179.31 186.087 178.388 185.105 177.63 184.075C175.819 186.586 173.579 188.71 170.912 190.448C170.154 190.93 169.364 191.397 168.541 191.848C167.75 192.266 166.993 192.62 166.268 192.91C165.544 193.167 164.918 193.328 164.391 193.393C163.897 193.425 163.568 193.296 163.403 193.006L161.131 188.806C162.777 188.195 164.325 187.471 165.774 186.634C167.256 185.765 168.557 184.799 169.677 183.737C170.797 182.675 171.669 181.501 172.295 180.213C172.954 178.926 173.283 177.51 173.283 175.965V173.937ZM177.433 213.137C175.951 213.137 174.683 213.057 173.629 212.896C172.575 212.735 171.719 212.429 171.06 211.979C170.434 211.56 169.973 210.965 169.677 210.193C169.381 209.452 169.232 208.471 169.232 207.248V199.765C169.232 199.282 169.15 198.848 168.985 198.461C168.821 198.075 168.557 197.673 168.195 197.255C167.899 196.901 167.816 196.579 167.948 196.289C168.08 195.999 168.327 195.855 168.689 195.855H177.087V205.703C177.087 206.572 177.251 207.119 177.581 207.344C177.943 207.57 178.536 207.682 179.359 207.682H205.788V213.137H177.433Z" fill="white"/>
</g>
<defs>
<clipPath id="clip0_563_11111">
<rect width="677" height="570" rx="20" fill="white"/>
</clipPath>
</defs>
</svg>
