<svg width="959" height="179" viewBox="0 0 959 179" fill="none" xmlns="http://www.w3.org/2000/svg">
<path d="M914.38 95.8205V74.2992H905.317V61.613H914.38V37.26H929.786V95.8205H914.38ZM861.931 88.0049C873.032 83.7006 879.829 78.4902 884.021 73.1665L864.876 74.4125L863.517 62.2926L889.231 61.8395C889.458 60.5936 889.571 59.4609 889.571 58.3282V54.0239H866.009V41.3377H904.524V57.5353C904.524 70.3348 895.349 88.1181 868.954 98.7655L861.931 88.0049ZM875.071 131.614C896.595 126.743 908.716 118.248 908.829 108.507V101.371H924.915V108.393C924.915 110.319 924.575 112.584 923.782 114.85C930.805 120.4 946.778 128.555 958.106 131.387L952.215 143.62C943.493 141.581 926.614 133.199 916.759 125.837C910.302 132.18 899.427 138.75 881.075 144.073L875.071 131.614ZM938.395 105.788V37.26H954.141V105.788H938.395Z" fill="#2644F2"/>
<path d="M759.534 133.766V120.627H799.182V98.5389H768.483V85.3997H782.077L780.151 60.1405L796.124 59.5742L797.483 85.3997H816.741L818.1 59.5742L834.073 60.1405L832.147 85.3997H845.741V98.5389H815.155V120.627H854.69V133.766H759.534ZM768.936 55.9495V42.8102H845.287V55.9495H768.936Z" fill="#2644F2"/>
<path d="M708.483 144.071V84.9112H694.259V71.6612H708.483V37.3738H724.788V144.071H708.483ZM640.14 102.113V42.6041H691.484V56.0866H656.445V71.8936H688.477V85.3761H656.445V98.8586C656.445 100.718 657.601 101.881 659.452 101.881H693.681V115.363H653.67C644.881 115.363 640.14 110.946 640.14 102.113Z" fill="black"/>
<path d="M602.103 143.958V37.26H618.408V143.958H602.103ZM531.1 78.4048C531.1 55.6241 543.936 43.0714 560.241 43.0714C576.431 43.0714 589.267 55.6241 589.267 78.4048C589.267 101.302 576.431 113.854 560.241 113.854C543.936 113.854 531.1 101.302 531.1 78.4048ZM547.405 78.4048C547.405 93.5145 553.187 100.488 560.241 100.488C567.18 100.488 572.962 93.5145 572.962 78.4048C572.962 63.4114 567.18 56.4377 560.241 56.4377C553.187 56.4377 547.405 63.4114 547.405 78.4048Z" fill="black"/>
<path d="M472.835 143.028V83.8676H459.19V70.3851H472.835V37.26H488.794V143.028H472.835ZM424.498 100.953V42.9552H463.237V56.4377H440.341V97.5825C440.341 99.4422 441.034 100.14 442.885 100.14H464.972V113.622H437.45C428.661 113.622 424.498 109.786 424.498 100.953ZM497.582 143.958V37.26H513.888V143.958H497.582Z" fill="black"/>
<path d="M389.341 143.958V37.26H405.647V143.958H389.341ZM318.339 78.4048C318.339 55.6241 331.175 43.0714 347.48 43.0714C363.669 43.0714 376.505 55.6241 376.505 78.4048C376.505 101.302 363.669 113.854 347.48 113.854C331.175 113.854 318.339 101.302 318.339 78.4048ZM334.644 78.4048C334.644 93.5145 340.426 100.488 347.48 100.488C354.418 100.488 360.2 93.5145 360.2 78.4048C360.2 63.4114 354.418 56.4377 347.48 56.4377C340.426 56.4377 334.644 63.4114 334.644 78.4048Z" fill="black"/>
<path d="M277.762 143.725V37.26H294.067V69.339H307.712V82.5891H294.067V143.725H277.762ZM213.466 100.837V42.9552H252.321C261.109 42.9552 265.504 47.0232 265.504 55.8565V113.738H226.649C217.86 113.738 213.466 109.67 213.466 100.837ZM229.771 97.5825C229.771 99.4422 230.581 100.256 232.431 100.256H249.199V59.1109C249.199 57.2513 248.389 56.4377 246.539 56.4377H229.771V97.5825Z" fill="black"/>
<path d="M76.9388 13.2728C84.6206 8.82594 94.0862 8.82594 101.768 13.2728L148.929 40.5735C156.606 45.018 161.336 53.2295 161.336 62.1157V116.735C161.336 125.621 156.606 133.832 148.929 138.277L101.768 165.578C94.0862 170.024 84.6206 170.024 76.9388 165.578L29.778 138.277C22.1004 133.832 17.3711 125.621 17.3711 116.735V62.1157C17.3711 53.2295 22.1004 45.018 29.778 40.5735L76.9388 13.2728Z" fill="url(#paint0_linear_1560_11477)"/>
<path fill-rule="evenodd" clip-rule="evenodd" d="M129.625 89.4207C129.625 66.0989 110.733 47.1929 87.4289 47.1929H54.6094L54.6094 131.648H87.4289C110.733 131.648 129.625 112.742 129.625 89.4207ZM105.011 89.4207C105.011 80.3511 97.664 72.9987 88.6012 72.9987H76.8799V105.843H88.6012C97.664 105.843 105.011 98.4902 105.011 89.4207Z" fill="white"/>
<mask id="mask0_1560_11477" style="mask-type:alpha" maskUnits="userSpaceOnUse" x="17" y="9" width="145" height="160">
<path d="M76.9427 13.272C84.6245 8.82512 94.0901 8.82512 101.772 13.272L148.933 40.5727C156.61 45.0172 161.34 53.2286 161.34 62.1149V116.734C161.34 125.62 156.61 133.832 148.933 138.276L101.772 165.577C94.0901 170.024 84.6245 170.024 76.9427 165.577L29.7819 138.276C22.1043 133.832 17.375 125.62 17.375 116.734V62.1149C17.375 53.2286 22.1043 45.0172 29.7819 40.5727L76.9427 13.272Z" fill="url(#paint1_linear_1560_11477)"/>
</mask>
<g mask="url(#mask0_1560_11477)">
<g filter="url(#filter0_d_1560_11477)">
<path d="M161.34 116.73V55.2659L89.3573 103.083L17.375 55.2659V116.73C17.375 125.617 22.1043 133.828 29.7819 138.273L76.9427 165.573C84.6245 170.02 94.0901 170.02 101.772 165.573L148.933 138.273C156.61 133.828 161.34 125.617 161.34 116.73Z" fill="#5A8BFF"/>
<path d="M158.968 116.731C158.968 124.521 154.951 131.736 148.388 135.833L147.744 136.22L100.584 163.521C93.8544 167.416 85.6113 167.538 78.7871 163.886L78.1309 163.521L30.9697 136.22C24.0263 132.2 19.7462 124.772 19.7461 116.731V59.6877L88.0449 105.058L89.3574 105.93L90.6699 105.058L158.968 59.6877V116.731Z" stroke="url(#paint2_linear_1560_11477)" stroke-width="4.74301"/>
</g>
</g>
<mask id="mask1_1560_11477" style="mask-type:alpha" maskUnits="userSpaceOnUse" x="17" y="55" width="145" height="114">
<path d="M161.34 116.732V55.2679L89.3573 103.085L17.375 55.2679V116.732C17.375 125.619 22.1043 133.83 29.7819 138.275L76.9427 165.575C84.6245 170.022 94.0901 170.022 101.772 165.575L148.933 138.275C156.61 133.83 161.34 125.619 161.34 116.732Z" fill="#5A8BFF"/>
</mask>
<g mask="url(#mask1_1560_11477)">
<g opacity="0.5" filter="url(#filter1_f_1560_11477)">
<path fill-rule="evenodd" clip-rule="evenodd" d="M129.361 89.4219C129.361 66.1002 110.608 47.1942 87.4747 47.1942H54.8965V131.65H87.4747C110.608 131.65 129.361 112.744 129.361 89.4219ZM104.927 89.4219C104.927 80.3523 97.6345 73 88.6383 73H77.0033V105.844H88.6383C97.6345 105.844 104.927 98.4915 104.927 89.4219Z" fill="white"/>
</g>
</g>
<defs>
<filter id="filter0_d_1560_11477" x="-1.59702" y="17.3218" width="181.909" height="151.587" filterUnits="userSpaceOnUse" color-interpolation-filters="sRGB">
<feFlood flood-opacity="0" result="BackgroundImageFix"/>
<feColorMatrix in="SourceAlpha" type="matrix" values="0 0 0 0 0 0 0 0 0 0 0 0 0 0 0 0 0 0 127 0" result="hardAlpha"/>
<feOffset dy="-18.972"/>
<feGaussianBlur stdDeviation="9.48601"/>
<feComposite in2="hardAlpha" operator="out"/>
<feColorMatrix type="matrix" values="0 0 0 0 0 0 0 0 0 0.144227 0 0 0 0 0.515098 0 0 0 0.4 0"/>
<feBlend mode="normal" in2="BackgroundImageFix" result="effect1_dropShadow_1560_11477"/>
<feBlend mode="normal" in="SourceGraphic" in2="effect1_dropShadow_1560_11477" result="shape"/>
</filter>
<filter id="filter1_f_1560_11477" x="35.9245" y="28.2221" width="112.409" height="122.4" filterUnits="userSpaceOnUse" color-interpolation-filters="sRGB">
<feFlood flood-opacity="0" result="BackgroundImageFix"/>
<feBlend mode="normal" in="SourceGraphic" in2="BackgroundImageFix" result="shape"/>
<feGaussianBlur stdDeviation="9.48601" result="effect1_foregroundBlur_1560_11477"/>
</filter>
<linearGradient id="paint0_linear_1560_11477" x1="89.3534" y1="4.55909" x2="89.3534" y2="174.29" gradientUnits="userSpaceOnUse">
<stop stop-color="#4385FC"/>
<stop offset="1" stop-color="#2B4EF4"/>
</linearGradient>
<linearGradient id="paint1_linear_1560_11477" x1="89.3573" y1="4.55827" x2="89.3573" y2="174.289" gradientUnits="userSpaceOnUse">
<stop stop-color="#4385FC"/>
<stop offset="1" stop-color="#2B4EF4"/>
</linearGradient>
<linearGradient id="paint2_linear_1560_11477" x1="89.3573" y1="55.3556" x2="89.3573" y2="133.561" gradientUnits="userSpaceOnUse">
<stop offset="0.0001" stop-color="#8DB3FE"/>
<stop offset="1" stop-color="#5E95FF"/>
</linearGradient>
</defs>
</svg>
