<svg width="72" height="72" viewBox="0 0 72 72" fill="none" xmlns="http://www.w3.org/2000/svg">
<path fill-rule="evenodd" clip-rule="evenodd" d="M28.0719 28.3295C28.5845 27.8902 29.4155 27.8902 29.9281 28.3295L36 33.5339L42.072 28.3295C42.5845 27.8902 43.4154 27.8902 43.928 28.3295C44.4406 28.7689 44.4406 29.4811 43.928 29.9204L36.928 35.9205C36.4154 36.3598 35.5845 36.3598 35.072 35.9205L28.0719 29.9204C27.5594 29.4811 27.5594 28.7689 28.0719 28.3295Z" fill="#111111"/>
<path fill-rule="evenodd" clip-rule="evenodd" d="M28.0719 20.3295C28.5845 19.8902 29.4155 19.8902 29.9281 20.3295L36 25.5339L42.072 20.3295C42.5845 19.8902 43.4154 19.8902 43.928 20.3295C44.4406 20.7689 44.4406 21.4811 43.928 21.9204L36.928 27.9205C36.4154 28.3598 35.5845 28.3598 35.072 27.9205L28.0719 21.9204C27.5594 21.4811 27.5594 20.7689 28.0719 20.3295Z" fill="#111111" fill-opacity="0.56"/>
</svg>
