<svg width="832" height="180" viewBox="0 0 832 180" fill="none" xmlns="http://www.w3.org/2000/svg">
<g clip-path="url(#clip0_1454_10635)">
<path d="M773.538 44.0572C764.994 52.6008 764.994 66.4971 773.538 75.0751L785.479 86.9813C789.425 90.9272 795.841 90.9272 799.787 86.9813L780.709 67.9039C776.112 63.3061 776.112 55.8261 780.709 51.194C785.307 46.5962 792.787 46.5962 797.385 51.194L833.172 86.9813C837.118 90.9272 843.5 90.9272 847.48 86.9813L804.556 44.0572C796.012 35.5135 782.082 35.5135 773.538 44.0572Z" fill="#0599D9"/>
<path d="M816.469 32.1504C801.338 17.0189 776.736 17.0189 761.605 32.1504C746.473 47.2819 746.473 71.8835 761.605 87.0151C765.55 90.9609 771.967 90.9609 775.913 87.0151L768.741 79.8782C757.556 68.6925 757.556 50.5072 768.741 39.3216C779.927 28.1359 798.112 28.1359 809.298 39.3216L856.991 87.0151C860.937 90.9609 867.354 90.9609 871.3 87.0151L816.435 32.1504H816.469Z" fill="#0599D9"/>
<path d="M785.484 55.9974C783.494 57.9875 783.494 61.1785 785.484 63.1343L809.331 86.981C813.277 90.9269 819.693 90.9269 823.639 86.981L792.621 55.9631C790.665 53.973 787.44 54.0073 785.484 55.9631" fill="#0599D9"/>
<path d="M720.297 44.0572C728.841 52.6008 728.841 66.4971 720.297 75.0751L708.391 86.9813C704.445 90.9272 698.029 90.9272 694.083 86.9813L713.161 67.9039C717.758 63.3061 717.758 55.8261 713.161 51.194C708.528 46.5962 701.083 46.5962 696.451 51.194L660.663 86.9813C656.718 90.9272 650.301 90.9272 646.355 86.9813L689.279 44.0572C697.823 35.5135 711.754 35.5135 720.263 44.0572" fill="#0599D9"/>
<path d="M677.369 32.1504C692.5 17.0189 717.102 17.0189 732.234 32.1504C747.365 47.2819 747.365 71.8835 732.234 87.0151C728.288 90.9609 721.871 90.9609 717.926 87.0151L725.062 79.8782C736.248 68.6925 736.248 50.5072 725.062 39.3216C713.877 28.1359 695.691 28.1359 684.506 39.3216L636.812 87.0151C632.866 90.9609 626.45 90.9609 622.539 87.0151L677.403 32.1504H677.369Z" fill="#0599D9"/>
<path d="M708.381 55.9974C710.337 57.9875 710.337 61.1785 708.381 63.1343L684.534 86.981C680.588 90.9269 674.172 90.9269 670.226 86.981L701.244 55.9631C703.2 53.973 706.425 54.0073 708.381 55.9631" fill="#0599D9"/>
<path d="M145.218 115.973C144.497 115.047 143.811 114.669 142.748 114.669H135.027C134.307 114.669 133.724 115.252 133.724 115.973V177.597C133.724 178.318 134.307 178.901 135.027 178.901C140.449 178.901 144.841 174.509 144.841 169.088V133.197L179.255 177.597C179.976 178.523 180.662 178.867 181.794 178.867H188.382C189.103 178.867 189.686 178.283 189.686 177.563V115.939C189.686 115.218 189.103 114.635 188.382 114.635H179.873C179.152 114.635 178.569 115.218 178.569 115.939V159.069L145.184 115.939L145.218 115.973Z" fill="#0599D9"/>
<path d="M405.096 115.973C404.375 115.047 403.689 114.669 402.625 114.669H394.94C394.219 114.669 393.636 115.252 393.636 115.973V177.597C393.636 178.318 394.219 178.901 394.94 178.901C400.361 178.901 404.718 174.509 404.718 169.088V133.197L439.133 177.597C439.854 178.523 440.54 178.867 441.672 178.867H448.26C448.981 178.867 449.564 178.283 449.564 177.563V115.939C449.564 115.218 448.981 114.635 448.26 114.635H439.751C439.03 114.635 438.481 115.218 438.447 115.939V159.069L405.027 115.939L405.096 115.973Z" fill="#0599D9"/>
<path d="M200.94 146.888C200.94 165.691 214.15 179.999 234.257 179.999C244.893 179.999 253.506 175.985 259.75 171.044C260.677 170.255 261.054 169.568 261.054 168.196V144.315C261.054 143.594 260.471 143.011 259.75 143.011H235.011C234.291 143.011 233.708 143.594 233.708 144.281C233.708 149.016 237.516 152.824 242.217 152.824H250.143V164.833C246.197 167.784 240.673 169.706 234.634 169.706C221.527 169.706 212.777 159.961 212.777 146.682C212.777 134.193 221.767 123.934 233.605 123.934C241.222 123.934 245.957 126.233 250.589 129.972C251.138 130.419 251.962 130.35 252.442 129.801L257.932 123.247C258.378 122.698 258.309 121.909 257.795 121.463C251.481 116.385 244.756 113.537 234.085 113.537C214.733 113.537 200.94 128.772 200.94 146.854V146.888Z" fill="#0599D9"/>
<path d="M460.779 146.888C460.779 165.691 473.989 179.999 494.096 179.999C504.733 179.999 513.345 175.985 519.59 171.044C520.516 170.255 520.894 169.568 520.894 168.196V144.315C520.894 143.594 520.31 143.011 519.59 143.011H494.851C494.13 143.011 493.547 143.594 493.547 144.281C493.547 149.016 497.356 152.824 502.056 152.824H509.948V164.833C506.002 167.784 500.512 169.706 494.439 169.706C481.332 169.706 472.582 159.961 472.582 146.682C472.582 134.193 481.572 123.934 493.41 123.934C501.027 123.934 505.762 126.233 510.394 129.972C510.943 130.419 511.767 130.35 512.247 129.801L517.737 123.247C518.183 122.698 518.114 121.909 517.6 121.463C511.286 116.385 504.527 113.537 493.89 113.537C474.538 113.537 460.745 128.772 460.745 146.854L460.779 146.888Z" fill="#0599D9"/>
<path d="M319.587 178.901C326.071 178.901 330.601 176.293 333.071 170.94L336.296 163.392H366.662L372.633 177.597C372.941 178.317 373.765 178.901 374.657 178.901H383.715C384.505 178.901 384.848 178.317 384.539 177.597L357.398 115.492C357.089 114.772 356.266 114.188 355.545 114.188H347.688C346.967 114.188 346.144 114.772 345.835 115.492L318.694 177.597C318.386 178.317 318.694 178.901 319.621 178.901H319.587ZM351.428 127.707L362.511 153.407H340.38L351.394 127.707H351.428Z" fill="#0599D9"/>
<path d="M88.8844 179.999C108.614 179.999 122.544 164.868 122.544 146.682C122.544 128.497 108.785 113.537 89.0559 113.537C69.3266 113.537 55.396 128.669 55.396 146.854C55.396 165.039 69.1551 179.965 88.8844 179.965V179.999ZM88.8844 123.934C101.648 123.934 110.707 134.296 110.707 146.888C110.707 159.481 101.786 169.637 89.0559 169.637C76.3262 169.637 67.2336 159.275 67.2336 146.682C67.2336 134.09 76.1204 123.934 88.8844 123.934Z" fill="#0599D9"/>
<path d="M278.005 115.974C277.421 115.047 276.735 114.67 275.637 114.67H265.344C264.486 114.67 264.28 115.253 264.726 115.974L289.396 153.58V177.598C289.396 178.318 289.98 178.902 290.7 178.902C296.259 178.902 300.754 174.407 300.788 168.883V153.305L325.424 115.974C325.904 115.253 325.698 114.67 324.806 114.67H314.89C313.792 114.67 313.14 115.013 312.523 115.939L295.161 143.114L278.005 115.974Z" fill="#0599D9"/>
<path d="M31.8869 168.847V125.134H45.4401C50.5182 125.134 54.6014 121.017 54.6014 115.973C54.6014 115.252 54.0181 114.669 53.2975 114.669H1.45229C0.731739 114.669 0.148438 115.252 0.148438 115.973V123.83C0.148438 124.551 0.731739 125.134 1.45229 125.134H20.5297V177.597C20.5297 178.317 21.113 178.901 21.8335 178.901C27.3921 178.901 31.9212 174.406 31.9212 168.813L31.8869 168.847Z" fill="#0599D9"/>
<path d="M571.473 178.902H596.28C601.221 178.902 605.27 174.887 605.27 169.912C605.27 169.192 604.687 168.608 603.966 168.608H571.507V115.94C571.507 115.219 570.924 114.636 570.203 114.636H561.522C560.802 114.636 560.219 115.219 560.219 115.94V168.608C560.219 174.27 565.297 178.868 571.507 178.868L571.473 178.902Z" fill="#0599D9"/>
<path d="M615.158 115.973V177.597C615.158 178.317 615.741 178.901 616.462 178.901C621.986 178.901 626.446 174.44 626.446 168.916V115.973C626.446 115.252 625.863 114.669 625.142 114.669H616.427C615.707 114.669 615.158 115.252 615.158 115.973Z" fill="#0599D9"/>
<path d="M641.127 115.973V177.631C641.127 178.352 641.71 178.935 642.431 178.935C647.955 178.935 652.416 174.475 652.416 168.95V152.789H675.816C680.791 152.789 684.806 148.775 684.806 143.8C684.806 143.079 684.223 142.496 683.502 142.496H652.416V124.963H679.968C684.943 124.963 688.923 120.948 688.923 115.973C688.923 115.252 688.34 114.669 687.62 114.669H642.396C641.676 114.669 641.093 115.252 641.093 115.973H641.127Z" fill="#0599D9"/>
<path d="M698.841 115.973V168.882C698.875 174.44 703.919 178.901 710.129 178.901H738.128C743 178.901 746.912 174.955 746.912 170.117C746.912 169.396 746.328 168.813 745.608 168.813H710.095V151.554H733.496C738.368 151.554 742.314 147.608 742.314 142.77C742.314 142.05 741.73 141.467 741.01 141.467H710.095V124.757H737.647C742.52 124.757 746.431 120.811 746.431 115.973C746.431 115.252 745.848 114.669 745.127 114.669H700.11C699.39 114.669 698.806 115.252 698.806 115.973H698.841Z" fill="#0599D9"/>
<path d="M5.26722 71.7468C5.26722 82.4521 12.7815 90.584 24.2074 90.584C30.2463 90.584 35.1528 88.3194 38.687 85.5058C39.2016 85.0598 39.4075 84.6824 39.4075 83.8932V70.34C39.4075 69.9283 39.0644 69.6195 38.687 69.5851H24.6191C24.2074 69.5851 23.8986 69.9283 23.8986 70.3057C23.8986 72.982 26.0602 75.1437 28.7365 75.1437H33.2314V81.9717C31.0011 83.653 27.8787 84.751 24.4132 84.751C16.9676 84.751 11.9923 79.2268 11.9923 71.6438C11.9923 64.5413 17.1048 58.7083 23.8299 58.7083C28.1532 58.7083 30.8639 60.0121 33.4716 62.1395C33.7804 62.414 34.2607 62.3453 34.5009 62.0365L37.6233 58.3308C37.8635 58.022 37.8292 57.576 37.5547 57.3015C33.9519 54.4193 30.1433 52.8066 24.0701 52.8066C13.056 52.8066 5.23291 61.4532 5.23291 71.7468H5.26722Z" fill="#0599D9"/>
<path d="M82.946 90.5493C87.132 90.5493 89.9799 88.8337 91.8671 86.5691C91.97 86.4319 92.073 86.3289 92.1759 86.226C92.8964 88.3876 94.9552 89.966 97.3913 89.966C97.803 89.966 98.1118 89.6229 98.1118 89.2454V73.6679C98.1118 66.3251 94.1317 62.0361 85.9998 62.0361C81.848 62.0361 79.0001 62.8253 76.1866 64.0262C75.8091 64.1978 75.6033 64.6438 75.7405 65.0213L77.01 68.6926C77.1473 69.0701 77.559 69.2759 77.9365 69.1044C80.2011 68.2123 82.3284 67.6633 85.142 67.6633C89.5339 67.6633 91.9014 69.7563 91.9014 73.5649V74.2512C89.7741 73.5649 87.6124 73.1189 84.2842 73.1189C77.8678 73.1189 73.1328 76.0354 73.1328 81.9713V82.0743C73.1328 87.5985 77.7306 90.5836 82.946 90.5836V90.5493ZM79.4119 81.6282C79.4119 78.8146 81.7451 77.202 85.7253 77.202C88.1614 77.202 90.426 77.6823 92.0386 78.3V80.0155C92.0386 83.4467 88.9163 85.8143 84.7302 85.8143C81.7451 85.8143 79.4119 84.3388 79.4119 81.7311V81.6282Z" fill="#0599D9"/>
<path d="M178.538 90.5493C182.724 90.5493 185.572 88.8337 187.459 86.5691C187.562 86.4319 187.665 86.3289 187.734 86.226C188.489 88.3876 190.513 89.966 192.949 89.966C193.361 89.966 193.67 89.6229 193.67 89.2454V73.6679C193.67 66.3251 189.69 62.0361 181.558 62.0361C177.406 62.0361 174.558 62.8253 171.745 64.0262C171.367 64.1978 171.196 64.6438 171.299 65.0213L172.534 68.6926C172.671 69.0701 173.083 69.2759 173.46 69.1044C175.69 68.2123 177.852 67.6633 180.631 67.6633C185.023 67.6633 187.425 69.7563 187.425 73.5649V74.2512C185.298 73.5649 183.136 73.1189 179.808 73.1189C173.392 73.1189 168.656 76.0354 168.656 81.9713V82.0743C168.656 87.5985 173.254 90.5836 178.47 90.5836L178.538 90.5493ZM175.004 81.6282C175.004 78.8146 177.372 77.202 181.318 77.202C183.754 77.202 186.018 77.6823 187.631 78.3V80.0155C187.631 83.4467 184.509 85.8143 180.323 85.8143C177.337 85.8143 175.004 84.3388 175.004 81.7311V81.6282Z" fill="#0599D9"/>
<path d="M157.456 63.1696V89.2123C157.456 89.6241 157.799 89.9672 158.211 89.9672C161.299 89.9672 163.769 87.4624 163.769 84.4087V63.204C163.769 62.7922 163.426 62.4834 163.049 62.4834H158.211C157.799 62.4834 157.456 62.8265 157.456 63.204V63.1696Z" fill="#0599D9"/>
<path d="M157.942 52.1895H163.261C163.673 52.1895 163.981 52.5326 163.981 52.91V57.4392C163.981 57.8509 163.638 58.194 163.227 58.194H157.942C157.531 58.194 157.188 57.8509 157.188 57.4392V52.91C157.188 52.4983 157.531 52.1895 157.908 52.1895H157.942Z" fill="#0599D9"/>
<path d="M199.82 63.1681V89.2108C199.82 89.6225 200.163 89.9657 200.541 89.9657C203.629 89.9657 206.099 87.4609 206.099 84.4071V74.4567C206.099 70.1677 208.638 67.6286 212.31 67.6286C215.981 67.6286 218.211 70.0648 218.211 74.3538V89.2451C218.211 89.6569 218.555 90 218.932 90H223.77C224.182 90 224.491 89.6569 224.491 89.2451V72.4666C224.491 66.0503 220.888 61.8643 214.677 61.8643C210.388 61.8643 207.849 64.0945 206.065 66.7022V63.1681C206.065 62.7564 205.722 62.4476 205.31 62.4476H200.472C200.061 62.4476 199.752 62.7907 199.752 63.1681H199.82Z" fill="#0599D9"/>
<path d="M68.2601 62.4122H63.4221C63.0104 62.4122 62.6673 62.7554 62.6673 63.1328V77.9212C62.6673 82.2102 60.1282 84.7493 56.4568 84.7493C52.7855 84.7493 50.5552 82.3131 50.5552 78.0241V63.1328C50.5552 62.721 50.2121 62.3779 49.8346 62.3779H44.9967C44.5849 62.3779 44.2761 62.721 44.2761 63.1328V79.9113C44.2761 86.3276 47.8789 90.5136 54.055 90.5136C58.344 90.5136 60.8831 88.2834 62.6673 85.6757V84.3718C62.6673 87.4599 65.1377 89.9303 68.2258 89.9303C68.6375 89.9303 68.9463 89.5872 68.9463 89.1755V63.1328C68.9463 62.721 68.6032 62.4122 68.2258 62.4122H68.2601Z" fill="#0599D9"/>
<path d="M134.925 90.549C139.42 90.549 142.268 88.2501 144.327 85.4022C144.327 85.3679 144.395 85.3335 144.395 85.2992C144.807 87.9756 147.106 90 149.885 90C150.297 90 150.64 89.6568 150.64 89.2794V52.703C150.64 52.2912 150.297 51.9824 149.885 51.9824H145.047C144.636 51.9824 144.327 52.3255 144.327 52.703V66.7708C142.337 64.1974 139.489 61.9329 134.925 61.9329C128.372 61.9329 122.161 67.0796 122.161 76.2752C122.161 85.4708 128.475 90.6176 134.925 90.6176V90.549ZM136.469 67.3198C140.69 67.3198 144.464 70.8196 144.464 76.2066C144.464 81.5936 140.69 85.0591 136.469 85.0591C132.249 85.0591 128.543 81.6279 128.543 76.2066C128.543 70.7853 132.146 67.3198 136.469 67.3198Z" fill="#0599D9"/>
<path d="M104.228 63.1678V89.2105C104.228 89.6223 104.571 89.9654 104.949 89.9654C108.037 89.9654 110.507 87.4606 110.507 84.4069V79.5003C110.507 72.3634 114.213 68.795 119.531 68.6234C119.943 68.6234 120.286 68.2803 120.286 67.8686V62.6875C120.286 62.3101 119.977 61.9669 119.6 61.9326C115.139 62.0012 112.188 64.7462 110.541 68.6577V63.2022C110.541 62.7904 110.198 62.4816 109.821 62.4816H104.983C104.571 62.4816 104.262 62.8247 104.262 63.2022L104.228 63.1678Z" fill="#0599D9"/>
<path d="M235.749 89.9648C239.42 89.9648 241.993 88.4894 243.4 85.4356L245.219 81.1466H262.478L265.875 89.2099C266.046 89.6217 266.526 89.9648 267.007 89.9648H272.154C272.6 89.9648 272.806 89.6217 272.634 89.2443L257.228 53.9373C257.056 53.5256 256.576 53.2168 256.164 53.2168H251.704C251.292 53.2168 250.812 53.5599 250.64 53.9717L235.234 89.2443C235.062 89.656 235.234 89.9648 235.749 89.9648ZM253.831 60.8683L260.144 75.4852H247.586L253.831 60.8683Z" fill="#0599D9"/>
<path d="M276.305 63.1671V89.2098C276.305 89.6216 276.648 89.9647 277.06 89.9647C280.114 89.9647 282.619 87.4599 282.619 84.4062V74.4557C282.619 70.1667 285.158 67.6277 288.829 67.6277C292.501 67.6277 294.731 70.0638 294.731 74.3528V89.2441C294.731 89.6559 295.074 89.999 295.451 89.999H300.289C300.701 89.999 301.01 89.6559 301.01 89.2441V72.4656C301.01 66.0493 297.407 61.8633 291.197 61.8633C286.908 61.8633 284.369 64.0936 282.584 66.7013V63.1671C282.584 62.7554 282.241 62.4466 281.83 62.4466H276.992C276.58 62.4466 276.237 62.7897 276.237 63.1671H276.305Z" fill="#0599D9"/>
<path d="M318.334 87.7687C322.863 87.7687 325.745 85.6757 328.044 82.7249V84.8522C328.044 90.3764 324.956 93.2929 319.329 93.2929C317.064 93.2929 315.04 92.8812 313.118 92.1607C310.957 91.3715 308.589 92.2979 307.525 94.4595C307.354 94.8027 307.457 95.1801 307.731 95.4203C311.162 97.3761 315.177 98.4054 319.5 98.4054C329.005 98.4054 334.323 94.0821 334.323 84.3375V63.1671C334.323 62.7554 333.98 62.4466 333.602 62.4466H328.764C328.353 62.4466 328.01 62.7897 328.01 63.1671V66.564C325.882 63.9906 323 61.8633 318.368 61.8633C311.952 61.8633 305.844 66.6669 305.844 74.8332C305.844 82.9994 311.883 87.7687 318.368 87.7687H318.334ZM320.015 67.1816C324.407 67.1816 328.113 70.2011 328.113 74.8332C328.113 79.4653 324.407 82.4504 320.015 82.4504C315.623 82.4504 312.192 79.3623 312.192 74.7645C312.192 70.1668 315.623 67.1473 320.015 67.1473V67.1816Z" fill="#0599D9"/>
<path d="M371.215 89.9649C374.303 89.9649 376.774 87.4602 376.774 84.4064V52.6336C376.774 52.2219 376.43 51.9131 376.053 51.9131H371.215C370.803 51.9131 370.46 52.2562 370.46 52.6336V89.2101C370.46 89.6218 370.803 89.9649 371.215 89.9649Z" fill="#0599D9"/>
<path d="M358.143 84.3032C356.77 85.0238 355.295 85.4355 353.511 85.4355C349.428 85.4355 346.305 82.9308 345.585 78.4359H364.113C365.074 78.4359 365.897 77.681 365.932 76.7203C365.932 68.7257 361.505 61.8633 352.722 61.8633C344.83 61.8633 339.271 68.3139 339.271 76.2399C339.271 84.7836 345.447 90.5823 353.408 90.5823C358.143 90.5823 361.608 88.7981 364.182 85.9845C364.456 85.6757 364.422 85.1953 364.113 84.9552C362.466 83.5141 360.03 83.3082 358.143 84.3032ZM352.653 67.0101C356.839 67.0101 359.241 70.2011 359.653 74.2499H345.516C346.099 69.9609 348.81 67.0101 352.653 67.0101Z" fill="#0599D9"/>
</g>
<defs>
<clipPath id="clip0_1454_10635">
<rect width="871.178" height="180" fill="white" transform="translate(0.15625)"/>
</clipPath>
</defs>
</svg>
