<svg width="680" height="291" viewBox="0 0 680 291" fill="none" xmlns="http://www.w3.org/2000/svg">
<rect y="0.333008" width="680" height="290.667" rx="40" fill="#191E26"/>
<path d="M70.8203 71.9072C70.2598 70.0479 68.7695 68.9131 66.6094 68.8994C63.5469 68.9131 61.4688 71.251 61.4688 75.4072C61.4688 79.5908 63.4785 81.9561 66.6367 81.9697C69.4668 81.9561 71.1484 80.3564 71.2031 77.8682H66.9102V74.7783H75.168V77.2393C75.168 82.4346 71.5996 85.6064 66.6094 85.6064C61.0586 85.6064 57.2852 81.7236 57.2852 75.4619C57.2852 69.0361 61.3047 65.2627 66.5273 65.2627C70.998 65.2627 74.4297 68.0107 74.9766 71.9072H70.8203ZM77.5338 85.333V70.4854H81.4439V73.0557H81.608C82.1412 71.2373 83.522 70.2666 85.19 70.2666C85.6002 70.2666 86.1197 70.3213 86.4752 70.4033V74.0127C86.0923 73.8896 85.313 73.7939 84.7525 73.7939C82.9205 73.7939 81.567 75.0654 81.5806 76.8838V85.333H77.5338ZM86.7628 81.1768C86.7765 77.8682 89.4288 76.7881 92.2862 76.6104C93.3527 76.542 95.3487 76.4463 95.9777 76.4189V75.2158C95.964 73.9717 95.1163 73.2607 93.5987 73.2471C92.2179 73.2607 91.3566 73.876 91.1378 74.8877H87.2823C87.5284 72.3174 89.7706 70.2939 93.7081 70.2939C96.9484 70.2939 100.011 71.7432 99.9972 75.3252V85.333H96.1691V83.2822H96.0597C95.3351 84.6494 93.9132 85.6201 91.712 85.6064C88.8683 85.6201 86.7765 84.1162 86.7628 81.1768ZM90.6456 81.0674C90.6456 82.2021 91.5616 82.8037 92.8605 82.8174C94.7062 82.8037 95.9913 81.6006 95.9777 80.0283V78.9482C95.3624 78.9756 93.6261 79.0713 92.9425 79.126C91.5343 79.249 90.6456 79.9189 90.6456 81.0674ZM104.359 90.9111C103.566 90.8975 102.828 90.8838 102.308 90.8291V87.6846C102.828 87.7256 103.443 87.7393 103.949 87.7393C104.756 87.7393 105.398 87.6572 105.89 86.3721L106.136 85.7432L100.804 70.4854H105.043L108.16 81.4229H108.324L111.468 70.4854H115.761L109.965 86.9736C109.117 89.3662 107.49 90.8975 104.359 90.9111ZM130.255 65.2627C134.356 65.2764 138.239 67.7236 138.239 74.915C138.253 81.6416 135.067 85.6064 130.091 85.6064C126.112 85.6064 123.378 83.1045 122.981 79.7549H127.028C127.37 81.2178 128.505 82.0791 130.091 82.0791C132.784 82.0791 134.206 79.6592 134.22 75.708H134.055C133.126 77.458 131.171 78.4971 128.97 78.4971C125.415 78.4971 122.79 75.8174 122.762 72.126C122.762 68.1475 125.784 65.249 130.255 65.2627ZM126.782 72.0166C126.782 73.9717 128.218 75.4893 130.255 75.4893C132.264 75.4893 133.809 73.8896 133.809 71.9893C133.782 70.1025 132.305 68.5029 130.282 68.4893C128.259 68.5029 126.755 70.0479 126.782 72.0166ZM148.152 85.6064C143.189 85.6064 140.195 81.915 140.195 75.4346C140.195 68.9678 143.216 65.2627 148.152 65.2627C153.087 65.2627 156.109 68.9678 156.109 75.4346C156.109 81.9424 153.101 85.6064 148.152 85.6064ZM144.406 75.4346C144.378 80.001 145.855 82.2158 148.152 82.2158C150.449 82.2158 151.911 80.001 151.898 75.4346C151.911 70.9092 150.435 68.6396 148.152 68.626C145.869 68.6396 144.406 70.9092 144.406 75.4346ZM166.076 85.6064C161.113 85.6064 158.119 81.915 158.119 75.4346C158.119 68.9678 161.141 65.2627 166.076 65.2627C171.012 65.2627 174.033 68.9678 174.033 75.4346C174.033 81.9424 171.025 85.6064 166.076 85.6064ZM162.33 75.4346C162.303 80.001 163.779 82.2158 166.076 82.2158C168.373 82.2158 169.836 80.001 169.822 75.4346C169.836 70.9092 168.359 68.6396 166.076 68.626C163.793 68.6396 162.33 70.9092 162.33 75.4346Z" fill="white"/>
<path d="M538.875 82.333L539.625 77.7861H535.664L534.914 82.333H532.898L533.648 77.7861H531.211L531.516 75.7939H533.977L534.609 71.9033H532.195L532.5 69.8877H534.949L535.688 65.3643H537.703L536.965 69.8877H540.926L541.664 65.3643H543.656L542.918 69.8877H545.391L545.062 71.9033H542.59L541.957 75.7939H544.406L544.055 77.7861H541.629L540.891 82.333H538.875ZM535.992 75.7939H539.953L540.586 71.9033H536.625L535.992 75.7939Z" fill="white"/>
<path d="M553.945 65.3643V82.333H551.344V67.9424H551.25L547.195 70.5908V68.1299L551.414 65.3643H553.945ZM563.614 65.1299C566.731 65.1533 570 67.0283 570.012 73.2393C570.012 79.1924 567.446 82.5674 563.379 82.5674C560.25 82.5674 558.071 80.6338 557.661 77.8799H560.215C560.567 79.3096 561.668 80.3057 563.379 80.3174C565.993 80.3057 567.528 78.0322 567.551 74.1533H567.34C566.426 75.583 564.833 76.4502 563.004 76.4502C559.958 76.4502 557.52 74.1182 557.52 70.8721C557.52 67.6377 559.922 65.1064 563.614 65.1299ZM560.028 70.8252C560.04 72.7939 561.504 74.3525 563.567 74.3408C565.618 74.3525 567.2 72.6768 567.2 70.8018C567.2 68.9619 565.688 67.2861 563.614 67.2861C561.563 67.2861 560.016 68.8799 560.028 70.8252ZM578.696 65.3643V82.333H576.095V67.9424H576.001L571.946 70.5908V68.1299L576.165 65.3643H578.696ZM582.763 82.333V65.3643H593.404V67.5908H585.341V72.7236H592.841V74.9268H585.341V80.1064H593.498V82.333H582.763ZM595.853 82.333V80.458L601.736 74.5283C603.6 72.5947 604.525 71.5166 604.525 70.0283C604.525 68.3525 603.166 67.2861 601.385 67.2861C599.498 67.2861 598.303 68.4814 598.291 70.2861H595.853C595.83 67.1807 598.197 65.1299 601.432 65.1299C604.701 65.1299 606.963 67.2041 606.986 69.958C606.963 71.8564 606.072 73.3682 602.885 76.4971L599.439 79.9893V80.1299H607.268V82.333H595.853ZM615.787 82.5674C612.647 82.5439 609.366 80.6807 609.366 74.4111C609.377 68.5049 611.932 65.1299 615.998 65.1299C619.127 65.1299 621.295 67.0752 621.694 69.7705H619.139C618.799 68.3877 617.709 67.3916 615.998 67.3799C613.373 67.3916 611.85 69.665 611.85 73.4971H612.037C612.963 72.0557 614.557 71.2119 616.397 71.2002C619.42 71.2119 621.858 73.5322 621.858 76.7783C621.858 80.0713 619.432 82.5908 615.787 82.5674ZM612.155 76.8486C612.166 78.7354 613.678 80.3994 615.764 80.4111C617.815 80.3994 619.35 78.8057 619.35 76.8252C619.35 74.8799 617.873 73.2979 615.834 73.3096C613.76 73.2979 612.178 74.9619 612.155 76.8486Z" fill="white"/>
</svg>
