<svg width="680" height="292" viewBox="0 0 680 292" fill="none" xmlns="http://www.w3.org/2000/svg">
<rect y="0.666992" width="680" height="290.667" rx="40" fill="#27C2D5"/>
<path d="M70.9023 72.7607C70.5742 70.5732 68.8926 69.2471 66.582 69.2334C63.5059 69.2471 61.4688 71.5986 61.4688 75.7686C61.4688 80.0342 63.5332 82.29 66.5547 82.3037C68.8105 82.29 70.5059 81.0596 70.9023 78.9131L75.0586 78.9404C74.6074 82.6045 71.5312 85.9404 66.5 85.9404C61.209 85.9404 57.2852 82.208 57.2852 75.7686C57.2852 69.3018 61.2773 65.5967 66.5 65.5967C71.0664 65.5967 74.5117 68.208 75.0586 72.7607H70.9023ZM79.858 91.2451C79.065 91.2314 78.3267 91.2178 77.8072 91.1631V88.0186C78.3267 88.0596 78.942 88.0732 79.4478 88.0732C80.2545 88.0732 80.897 87.9912 81.3892 86.7061L81.6353 86.0771L76.3033 70.8193H80.5416L83.6588 81.7568H83.8228L86.9673 70.8193H91.2603L85.4634 87.3076C84.6158 89.7002 82.9888 91.2314 79.858 91.2451ZM91.548 81.5107C91.5616 78.2021 94.214 77.1221 97.0714 76.9443C98.1378 76.876 100.134 76.7803 100.763 76.7529V75.5498C100.749 74.3057 99.9015 73.5947 98.3839 73.5811C97.003 73.5947 96.1417 74.21 95.923 75.2217H92.0675C92.3136 72.6514 94.5558 70.6279 98.4933 70.6279C101.734 70.6279 104.796 72.0771 104.782 75.6592V85.667H100.954V83.6162H100.845C100.12 84.9834 98.6984 85.9541 96.4972 85.9404C93.6534 85.9541 91.5616 84.4502 91.548 81.5107ZM95.4308 81.4014C95.4308 82.5361 96.3468 83.1377 97.6456 83.1514C99.4913 83.1377 100.776 81.9346 100.763 80.3623V79.2822C100.148 79.3096 98.4113 79.4053 97.7277 79.46C96.3195 79.583 95.4308 80.2529 95.4308 81.4014ZM111.359 77.0811V85.667H107.312V70.8193H111.168V73.417H111.332C112.002 71.708 113.588 70.6279 115.789 70.6279C118.892 70.6279 120.916 72.7471 120.902 76.2061V85.667H116.882V76.917C116.869 75.085 115.884 73.9912 114.203 73.9912C112.521 73.9912 111.359 75.126 111.359 77.0811ZM136.626 85.9404C132.497 85.9404 129.475 83.5068 129.407 80.0889H133.399C133.495 81.6338 134.903 82.7002 136.626 82.6865C138.677 82.7002 140.139 81.251 140.126 79.1865C140.139 77.0811 138.649 75.6182 136.571 75.6045C135.081 75.6045 134.042 76.165 133.454 77.2725H129.735L130.802 65.8701H142.997V69.2334H134.192L133.645 74.2373H133.809C134.534 73.2666 136.038 72.5557 137.774 72.5693C141.411 72.5557 144.118 75.2764 144.118 79.0771C144.118 83.083 141.083 85.9404 136.626 85.9404ZM154.031 85.9404C149.068 85.9404 146.074 82.249 146.074 75.7686C146.074 69.3018 149.095 65.5967 154.031 65.5967C158.966 65.5967 161.988 69.3018 161.988 75.7686C161.988 82.2764 158.98 85.9404 154.031 85.9404ZM150.285 75.7686C150.257 80.335 151.734 82.5498 154.031 82.5498C156.327 82.5498 157.79 80.335 157.777 75.7686C157.79 71.2432 156.314 68.9736 154.031 68.96C151.747 68.9736 150.285 71.2432 150.285 75.7686ZM171.955 85.9404C166.992 85.9404 163.998 82.249 163.998 75.7686C163.998 69.3018 167.019 65.5967 171.955 65.5967C176.891 65.5967 179.912 69.3018 179.912 75.7686C179.912 82.2764 176.904 85.9404 171.955 85.9404ZM168.209 75.7686C168.182 80.335 169.658 82.5498 171.955 82.5498C174.252 82.5498 175.715 80.335 175.701 75.7686C175.715 71.2432 174.238 68.9736 171.955 68.96C169.672 68.9736 168.209 71.2432 168.209 75.7686Z" fill="white"/>
<path d="M528.875 82.667L529.625 78.1201H525.664L524.914 82.667H522.898L523.648 78.1201H521.211L521.516 76.1279H523.977L524.609 72.2373H522.195L522.5 70.2217H524.949L525.688 65.6982H527.703L526.965 70.2217H530.926L531.664 65.6982H533.656L532.918 70.2217H535.391L535.062 72.2373H532.59L531.957 76.1279H534.406L534.055 78.1201H531.629L530.891 82.667H528.875ZM525.992 76.1279H529.953L530.586 72.2373H526.625L525.992 76.1279Z" fill="white"/>
<path d="M537.5 82.667V80.792L543.383 74.8623C545.246 72.9287 546.172 71.8506 546.172 70.3623C546.172 68.6865 544.812 67.6201 543.031 67.6201C541.145 67.6201 539.949 68.8154 539.938 70.6201H537.5C537.477 67.5146 539.844 65.4639 543.078 65.4639C546.348 65.4639 548.609 67.5381 548.633 70.292C548.609 72.1904 547.719 73.7021 544.531 76.8311L541.086 80.3232V80.4639H548.914V82.667H537.5ZM551.879 82.667L559.45 68.042V67.9014H550.708V65.6982H562.122V67.9951L554.575 82.667H551.879ZM575.962 71.2295C575.552 69.0381 573.735 67.8193 571.579 67.8311C568.649 67.8193 566.481 70.0693 566.47 74.1826C566.481 78.3193 568.661 80.5459 571.579 80.5342C573.712 80.5459 575.517 79.3506 575.962 77.1826L578.563 77.2061C578.024 80.5576 575.294 82.9014 571.556 82.9014C567.138 82.9014 563.915 79.6084 563.915 74.1826C563.915 68.7568 567.161 65.4639 571.556 65.4639C575.142 65.4639 577.989 67.585 578.563 71.2295H575.962ZM580.638 82.667V80.792L586.521 74.8623C588.384 72.9287 589.31 71.8506 589.31 70.3623C589.31 68.6865 587.951 67.6201 586.169 67.6201C584.283 67.6201 583.087 68.8154 583.076 70.6201H580.638C580.615 67.5146 582.982 65.4639 586.216 65.4639C589.486 65.4639 591.748 67.5381 591.771 70.292C591.748 72.1904 590.857 73.7021 587.669 76.8311L584.224 80.3232V80.4639H592.052V82.667H580.638ZM600.174 82.667H594.666V65.6982H600.338C605.342 65.6982 608.318 68.874 608.33 74.1592C608.318 79.4561 605.342 82.667 600.174 82.667ZM597.244 80.417H600.033C603.877 80.4053 605.775 78.167 605.775 74.1592C605.775 70.1631 603.877 67.9482 600.174 67.9482H597.244V80.417ZM616.287 82.9014C613.077 82.9014 610.662 80.9443 610.545 78.2373H613.053C613.194 79.6787 614.577 80.7334 616.287 80.7451C618.35 80.7334 619.827 79.2451 619.827 77.2295C619.827 75.167 618.303 73.667 616.17 73.6436C614.811 73.6436 613.768 74.1006 613.194 75.1436H610.756L611.858 65.6982H621.467V67.9014H613.991L613.428 72.6592H613.592C614.295 71.9795 615.491 71.5225 616.78 71.5107C619.979 71.5225 622.334 73.8896 622.334 77.1592C622.334 80.499 619.827 82.9014 616.287 82.9014Z" fill="white"/>
</svg>
