<svg width="680" height="291" viewBox="0 0 680 291" fill="none" xmlns="http://www.w3.org/2000/svg">
<rect width="680" height="290.667" rx="40" fill="#007EF4"/>
<path d="M74.1836 65.2031V85H70.6289L61.9336 72.4219H61.7695V85H57.668V65.2031H61.2773L69.918 77.7812H70.1094V65.2031H74.1836ZM83.6041 85.3008C79.065 85.3008 76.2759 82.3477 76.2759 77.6445C76.2759 73.0508 79.0923 69.9609 83.44 69.9609C87.3502 69.9609 90.4127 72.4219 90.4127 77.4805V78.6289H80.2681C80.2681 80.8711 81.608 82.2656 83.6861 82.2656C85.0533 82.2656 86.0377 81.6641 86.4478 80.7617H90.3033C89.7291 83.4961 87.2681 85.3008 83.6041 85.3008ZM80.2681 76.0859H86.5845C86.5845 74.2812 85.3267 72.9961 83.522 72.9961C81.6627 72.9961 80.3365 74.377 80.2681 76.0859ZM95.212 85L91.1652 70.1523H95.2667L97.5909 80.1875H97.7277L100.161 70.1523H104.181L106.642 80.1328H106.778L109.075 70.1523H113.177L109.103 85H104.837L102.267 75.5664H102.075L99.505 85H95.212ZM120.643 85V65.2031H128.518C132.893 65.2031 135.08 67.3086 135.08 70.2891C135.08 72.6133 133.576 74.0625 131.526 74.5273V74.7188C133.768 74.8281 135.873 76.6055 135.873 79.5312C135.873 82.6758 133.522 85 129.037 85H120.643ZM128.217 81.6094C130.596 81.6094 131.608 80.625 131.608 79.1484C131.608 77.4805 130.35 76.3047 128.326 76.3047H124.744V81.6094H128.217ZM127.916 73.4883C129.639 73.4883 130.924 72.5312 130.924 70.9453C130.924 69.5234 129.885 68.5391 127.998 68.5391H124.744V73.4883H127.916ZM141.876 65.2031V85H137.829V65.2031H141.876ZM153.976 78.6836V70.1523H158.023V85H154.14V82.3203H153.976C153.292 84.043 151.706 85.1914 149.464 85.1914C146.484 85.1914 144.46 83.0859 144.46 79.6133V70.1523H148.507V78.9023C148.507 80.6523 149.519 81.7734 151.105 81.7734C152.581 81.7734 153.976 80.707 153.976 78.6836ZM167.334 85.3008C162.795 85.3008 160.006 82.3477 160.006 77.6445C160.006 73.0508 162.822 69.9609 167.17 69.9609C171.08 69.9609 174.143 72.4219 174.143 77.4805V78.6289H163.998C163.998 80.8711 165.338 82.2656 167.416 82.2656C168.783 82.2656 169.768 81.6641 170.178 80.7617H174.033C173.459 83.4961 170.998 85.3008 167.334 85.3008ZM163.998 76.0859H170.314C170.314 74.2812 169.057 72.9961 167.252 72.9961C165.393 72.9961 164.066 74.377 163.998 76.0859ZM189.265 85.2734C185.136 85.2734 182.128 82.8398 182.046 79.4219H186.038C186.12 80.9805 187.542 82.0195 189.265 82.0195C191.315 82.0195 192.765 80.5703 192.765 78.5195C192.765 76.4141 191.288 74.9648 189.21 74.9375C187.733 74.9375 186.694 75.4844 186.093 76.6055H182.374L183.44 65.2031H195.636V68.5664H186.831L186.284 73.5703H186.448C187.187 72.5859 188.663 71.9023 190.413 71.9023C194.05 71.9023 196.757 74.6094 196.757 78.4102C196.757 82.4023 193.722 85.2734 189.265 85.2734ZM206.67 85.2734C201.72 85.2734 198.712 81.582 198.712 75.1016C198.712 68.6211 201.72 64.9297 206.67 64.9297C211.619 64.9297 214.627 68.6484 214.627 75.1016C214.627 81.6094 211.619 85.2734 206.67 85.2734ZM206.67 81.8828C208.966 81.8828 210.443 79.668 210.416 75.1016C210.416 70.5898 208.966 68.293 206.67 68.293C204.373 68.293 202.923 70.5898 202.923 75.1016C202.896 79.668 204.373 81.8828 206.67 81.8828ZM224.594 85.2734C219.645 85.2734 216.637 81.582 216.637 75.1016C216.637 68.6211 219.645 64.9297 224.594 64.9297C229.543 64.9297 232.551 68.6484 232.551 75.1016C232.551 81.6094 229.543 85.2734 224.594 85.2734ZM224.594 81.8828C226.891 81.8828 228.367 79.668 228.34 75.1016C228.34 70.5898 226.891 68.293 224.594 68.293C222.297 68.293 220.848 70.5898 220.848 75.1016C220.82 79.668 222.297 81.8828 224.594 81.8828Z" fill="white"/>
<path d="M533.875 82L534.625 77.4531H530.664L529.914 82H527.898L528.648 77.4531H526.211L526.516 75.4609H528.977L529.609 71.5703H527.195L527.5 69.5547H529.949L530.688 65.0312H532.703L531.965 69.5547H535.926L536.664 65.0312H538.656L537.918 69.5547H540.391L540.062 71.5703H537.59L536.957 75.4609H539.406L539.055 77.4531H536.629L535.891 82H533.875ZM530.992 75.4609H534.953L535.586 71.5703H531.625L530.992 75.4609Z" fill="white"/>
<path d="M548.406 82.2344C544.48 82.2344 542.172 79.0703 542.172 73.5156C542.172 67.9961 544.504 64.7969 548.406 64.7969C552.297 64.7969 554.629 67.9961 554.641 73.5156C554.629 79.0703 552.332 82.2344 548.406 82.2344ZM544.75 73.5156C544.738 77.7461 546.109 80.0078 548.406 80.0078C550.691 80.0078 552.062 77.7461 552.062 73.5156C552.062 69.2969 550.68 66.9883 548.406 66.9766C546.121 66.9883 544.75 69.2969 544.75 73.5156ZM562.739 82.2344C558.813 82.2344 556.504 79.0703 556.504 73.5156C556.504 67.9961 558.836 64.7969 562.739 64.7969C566.629 64.7969 568.961 67.9961 568.973 73.5156C568.961 79.0703 566.665 82.2344 562.739 82.2344ZM559.083 73.5156C559.071 77.7461 560.442 80.0078 562.739 80.0078C565.024 80.0078 566.395 77.7461 566.395 73.5156C566.395 69.2969 565.012 66.9883 562.739 66.9766C560.454 66.9883 559.083 69.2969 559.083 73.5156ZM571.282 82L578.853 67.375V67.2344H570.11V65.0312H581.524V67.3281L573.978 82H571.282ZM583.88 82V65.0312H594.521V67.2578H586.458V72.3906H593.958V74.5938H586.458V79.7734H594.615V82H583.88ZM597.205 82V65.0312H607.728V67.2578H599.783V72.3906H606.978V74.5938H599.783V82H597.205ZM609.522 78.6953V76.6094L617.022 65.0312H620.209V76.5156H622.53V78.6953H620.209V82H617.772V78.6953H609.522ZM612.241 76.5156H617.772V68.1016H617.584L612.241 76.375V76.5156Z" fill="white"/>
</svg>
