<svg width="166" height="101" viewBox="0 0 166 101" fill="none" xmlns="http://www.w3.org/2000/svg">
<path d="M166.188 64.916V74.5112C165.292 74.5521 164.507 74.6175 163.717 74.6216C153.829 74.6298 143.944 74.6748 134.056 74.5807C132.346 74.5643 131.74 75.1247 131.331 76.7198C128.025 89.5665 116.86 99.4521 103.797 100.691C91.4742 101.861 81.3853 97.448 73.837 87.5133C73.4278 86.9775 73.0433 86.4254 72.941 86.2822C69.3693 87.816 66.1045 89.7138 62.582 90.6381C53.9904 92.8958 45.5748 91.816 37.5151 88.1146C36.5373 87.6647 35.6249 87.0225 34.7903 86.3354C33.4525 85.2393 32.9575 83.906 33.7512 82.18C34.5653 80.4049 35.2035 78.5521 35.764 77.1329C39.9207 78.773 43.7747 80.7157 47.8618 81.7628C50.7911 82.5153 54.0559 82.3599 57.1202 82.0736C60.1068 81.7955 62.2547 79.9591 62.9502 76.8507C63.6334 73.7872 63.1589 70.867 60.7123 68.826C58.7567 67.1941 56.3797 66.0612 54.1664 64.7483C49.846 62.1838 45.2393 60.0161 41.2545 57.0141C36.1036 53.149 33.5916 47.5988 34.3035 41.0793C35.0604 34.1386 39.8471 29.3982 47.3831 27.7827C55.5369 26.0362 63.4903 27.0956 71.2186 30.0036C71.8895 30.2571 72.6219 31.3165 72.6791 32.0486C72.8591 34.4903 72.8264 36.9566 72.6996 39.4024C72.6587 40.1918 72.2782 41.337 71.7054 41.6233C71.1695 41.8933 70.0158 41.4474 69.398 40.9771C65.2004 37.7623 60.5773 35.9341 55.2096 36.1509C51.5889 36.2981 48.815 37.8646 47.9313 40.4249C46.8472 43.5743 47.9313 47.0385 50.8197 49.3248C52.043 50.2942 53.3154 51.2512 54.6819 51.9956C59.3295 54.5273 64.0344 56.965 68.7352 59.4517C76.5781 32.0322 114.446 27.3451 129.126 54.0733C129.126 53.059 129.126 52.4946 129.126 51.9302C129.126 41.8401 129.109 31.7541 129.138 21.664C129.146 19.6313 128.839 17.8112 127.493 16.1425C126.27 14.621 126.945 13.4513 128.962 13.4267C132.644 13.3817 136.33 13.5003 140.008 13.3735C141.87 13.3122 142.467 13.8807 142.459 15.7867C142.389 31.1242 142.414 46.4618 142.426 61.7994C142.426 65.3659 142.091 64.9037 145.642 64.916C152.384 64.9364 159.127 64.9201 166.192 64.9201L166.188 64.916ZM120.996 68.4866C120.968 56.7318 111.746 47.562 99.9799 47.5866C88.2749 47.6111 79.0328 56.9036 79.0124 68.6093C78.9919 80.5971 89.2159 89.7997 100.299 89.5502C111.869 89.2884 121.025 80.1718 120.996 68.4866Z" fill="#1F5BFF"/>
<path d="M33.1972 3.4861C33.1972 3.03608 33.1618 2.68125 33.091 2.42162C33.0378 2.14469 32.8873 1.8591 32.6393 1.56485C32.4622 1.37446 32.4091 1.21002 32.4799 1.07156C32.5685 0.915779 32.7102 0.837891 32.905 0.837891H37.4479V3.74573H43.4786V6.60164H40.6891C41.0965 7.05166 41.4153 7.56227 41.6455 8.13345C41.8935 8.68732 42.0175 9.29312 42.0175 9.95085C42.0175 10.7643 41.8669 11.5259 41.5658 12.2356C41.2647 12.9279 40.8219 13.5337 40.2375 14.053C39.653 14.5722 38.9268 14.979 38.059 15.2732C37.2088 15.5675 36.2347 15.7146 35.1366 15.7146C34.0385 15.7146 33.0644 15.5675 32.2142 15.2732C31.3641 14.979 30.6468 14.5722 30.0623 14.053C29.4779 13.5337 29.0262 12.9279 28.7074 12.2356C28.4063 11.5259 28.2558 10.7643 28.2558 9.95085C28.2558 9.27581 28.362 8.66136 28.5746 8.10749C28.8048 7.55361 29.1236 7.05166 29.531 6.60164H26.7415V3.74573H33.1972V3.4861ZM45.6306 18.0772V4.21306C45.6306 3.76304 45.5863 3.40821 45.4977 3.14858C45.4092 2.87165 45.2409 2.58606 44.993 2.29181C44.8158 2.10142 44.7627 1.93698 44.8336 1.79852C44.9221 1.64274 45.0638 1.56485 45.2586 1.56485H49.8016V7.69208H52.8302V10.6259H49.8016V18.0772H45.6306ZM50.1204 22.7505V25.6843H35.2695C34.4724 25.6843 33.7817 25.6324 33.1972 25.5285C32.6305 25.442 32.1611 25.2689 31.7892 25.0093C31.4172 24.767 31.1427 24.4295 30.9656 23.9967C30.8062 23.5813 30.7265 23.0448 30.7265 22.387V19.5311C30.7265 19.2715 30.6822 19.0378 30.5937 18.8301C30.5051 18.6224 30.3634 18.4061 30.1686 18.1811C30.0092 17.9907 29.9649 17.8176 30.0358 17.6618C30.1066 17.506 30.2394 17.4281 30.4343 17.4281H34.9506V21.6861C34.9506 22.1534 35.0392 22.4476 35.2163 22.5688C35.4111 22.6899 35.7299 22.7505 36.1727 22.7505H50.1204ZM35.1366 12.8587C36.0576 12.8587 36.7661 12.5644 37.262 11.9759C37.7756 11.3701 38.0324 10.6518 38.0324 9.82103C38.0324 8.9383 37.7756 8.20268 37.262 7.61419C36.7661 7.00839 36.0576 6.70549 35.1366 6.70549C34.1979 6.70549 33.4806 7.00839 32.9847 7.61419C32.4888 8.20268 32.2408 8.9383 32.2408 9.82103C32.2408 10.6518 32.4888 11.3701 32.9847 11.9759C33.4806 12.5644 34.1979 12.8587 35.1366 12.8587Z" fill="#1F5BFF"/>
<path d="M20.0494 17.7143V4.21364C20.0494 3.76362 19.9963 3.40014 19.89 3.1232C19.8014 2.84626 19.6332 2.56933 19.3852 2.29239C19.2258 2.102 19.1815 1.93756 19.2524 1.7991C19.3409 1.64332 19.4826 1.56543 19.6775 1.56543H24.2204V17.7143H20.0494ZM7.19099 4.60308C7.19099 4.17037 7.15557 3.8242 7.08472 3.56457C7.03159 3.28763 6.88104 3.01069 6.63308 2.73376C6.47368 2.54336 6.4294 2.37028 6.50025 2.2145C6.57109 2.05872 6.70393 1.98084 6.89876 1.98084H11.4948V5.43389C11.4948 6.28201 11.6897 7.05224 12.0793 7.74459C12.469 8.41962 12.9649 9.01677 13.5671 9.53602C14.187 10.0553 14.8777 10.5053 15.6393 10.8861C16.4186 11.2669 17.1979 11.5871 17.9772 11.8467L16.8348 13.9497C16.6577 14.2613 16.2415 14.3478 15.5862 14.2093C14.9485 14.0709 14.0541 13.6555 12.9029 12.9631C12.2476 12.565 11.6188 12.1237 11.0166 11.639C10.4322 11.1371 9.93624 10.6092 9.52888 10.0553C8.55476 11.4053 7.35039 12.5477 5.91578 13.4824C5.50842 13.742 5.08335 13.993 4.64056 14.2353C4.21549 14.4603 3.80813 14.6507 3.41848 14.8065C3.02883 14.9449 2.69232 15.0315 2.40894 15.0661C2.14327 15.0834 1.96615 15.0142 1.8776 14.8584L0.655518 12.5996C1.54108 12.2708 2.37351 11.8813 3.15281 11.4313C3.94982 10.964 4.64942 10.4447 5.2516 9.87354C5.85379 9.30236 6.32314 8.67059 6.65965 7.97825C7.01388 7.28591 7.19099 6.52433 7.19099 5.69352V4.60308ZM9.42262 25.6849C8.62561 25.6849 7.94372 25.6416 7.37696 25.5551C6.8102 25.4686 6.3497 25.3041 5.99548 25.0618C5.65896 24.8368 5.411 24.5166 5.2516 24.1012C5.0922 23.7031 5.0125 23.1752 5.0125 22.5174V18.4932C5.0125 18.2336 4.96822 17.9999 4.87967 17.7922C4.79111 17.5845 4.64942 17.3681 4.45459 17.1431C4.29519 16.9527 4.25091 16.7797 4.32176 16.6239C4.3926 16.4681 4.52544 16.3902 4.72026 16.3902H9.23665V21.6866C9.23665 22.154 9.3252 22.4482 9.50232 22.5694C9.69714 22.6905 10.0159 22.7511 10.4587 22.7511H24.6721V25.6849H9.42262Z" fill="#1F5BFF"/>
</svg>
