<svg width="28" height="28" viewBox="0 0 28 28" fill="none" xmlns="http://www.w3.org/2000/svg">
<path fill-rule="evenodd" clip-rule="evenodd" d="M6.07192 16.3295C6.58448 15.8902 7.41552 15.8902 7.92807 16.3295L14 21.5339L20.072 16.3295C20.5845 15.8902 21.4154 15.8902 21.928 16.3295C22.4406 16.7689 22.4406 17.4811 21.928 17.9204L14.928 23.9205C14.4154 24.3598 13.5845 24.3598 13.072 23.9205L6.07192 17.9204C5.55936 17.4811 5.55936 16.7689 6.07192 16.3295Z" fill="#111111"/>
<path fill-rule="evenodd" clip-rule="evenodd" d="M6.07192 8.32951C6.58448 7.89016 7.41552 7.89016 7.92807 8.32951L14 13.5339L20.072 8.32951C20.5845 7.89016 21.4154 7.89016 21.928 8.32951C22.4406 8.76886 22.4406 9.48106 21.928 9.92041L14.928 15.9205C14.4154 16.3598 13.5845 16.3598 13.072 15.9205L6.07192 9.92041C5.55936 9.48106 5.55936 8.76886 6.07192 8.32951Z" fill="#111111" fill-opacity="0.56"/>
</svg>
