<svg width="298" height="149" viewBox="0 0 298 149" fill="none" xmlns="http://www.w3.org/2000/svg">
<path d="M149 149C129.433 149 110.058 145.146 91.9802 137.658C73.9026 130.17 57.477 119.195 43.6411 105.359C29.8052 91.523 18.8299 75.0973 11.3419 57.0198C3.854 38.9423 -1.7106e-06 19.567 0 0L149 1.3026e-05V149Z" fill="#FF5624"/>
<path d="M298 149C278.433 149 259.058 145.146 240.98 137.658C222.903 130.17 206.477 119.195 192.641 105.359C178.805 91.523 167.83 75.0973 160.342 57.0198C152.854 38.9423 149 19.567 149 0L298 1.3026e-05V149Z" fill="#FF5624"/>
</svg>
