<svg width="217" height="301" viewBox="0 0 217 301" fill="none" xmlns="http://www.w3.org/2000/svg">
<rect width="217" height="301" rx="32" fill="white"/>
<path d="M34.5925 182.76C34.5925 182.6 34.6725 182.52 34.8325 182.52H35.9045C36.0645 182.52 36.1445 182.6 36.1445 182.76V187.672H42.8965V182.76C42.8965 182.6 42.9765 182.52 43.1365 182.52H44.2085C44.3685 182.52 44.4485 182.6 44.4485 182.76V194.76C44.4485 194.92 44.3685 195 44.2085 195H43.1365C42.9765 195 42.8965 194.92 42.8965 194.76V189.016H36.1445V194.76C36.1445 194.92 36.0645 195 35.9045 195H34.8325C34.6725 195 34.5925 194.92 34.5925 194.76V182.76ZM50.7264 186.84C53.2704 186.84 54.9344 188.696 54.7744 191.016L54.7584 191.224C54.7424 191.384 54.6624 191.464 54.5024 191.464H48.0064C48.1984 192.952 49.3344 193.896 50.8224 193.896C51.6864 193.896 52.5184 193.48 53.2224 192.808C53.3504 192.696 53.4464 192.696 53.5584 192.808L54.1344 193.416C54.2464 193.528 54.2464 193.656 54.1344 193.768C53.2864 194.696 52.2144 195.16 50.8224 195.16C48.2944 195.16 46.5344 193.432 46.5344 191C46.5344 188.568 48.2784 186.84 50.7264 186.84ZM48.0384 190.264H53.2384C53.2384 189.256 52.2944 188.104 50.7264 188.104C49.3824 188.104 48.3104 188.824 48.0384 190.264ZM60.4615 186.84C61.6295 186.84 62.4935 187.208 63.0375 187.752V187.224C63.0375 187.08 63.1175 187 63.2775 187H64.2695C64.4295 187 64.5095 187.08 64.5095 187.224V194.776C64.5095 194.92 64.4295 195 64.2695 195H63.2775C63.1175 195 63.0375 194.92 63.0375 194.776V194.2C62.4295 194.824 61.5495 195.16 60.4615 195.16C58.0935 195.16 56.2375 193.368 56.2375 191C56.2375 188.632 58.0935 186.84 60.4615 186.84ZM57.7255 191C57.7255 192.6 58.9415 193.864 60.6215 193.864C61.7095 193.864 62.5255 193.352 63.0375 192.552V189.432C62.5575 188.728 61.7095 188.136 60.6215 188.136C58.9415 188.136 57.7255 189.4 57.7255 191ZM66.9031 194.776V182.424C66.9031 182.28 66.9831 182.2 67.1431 182.2H68.1351C68.2951 182.2 68.3751 182.28 68.3751 182.424V194.776C68.3751 194.92 68.2951 195 68.1351 195H67.1431C66.9831 195 66.9031 194.92 66.9031 194.776ZM69.8181 187.24C69.8181 187.08 69.8981 187 70.0581 187H71.7861V184.808C71.7861 184.648 71.8501 184.52 71.9781 184.44L73.0661 183.688C73.1941 183.608 73.2581 183.64 73.2581 183.8V187H74.9861C75.1461 187 75.2261 187.08 75.2261 187.24V188.04C75.2261 188.2 75.1461 188.28 74.9861 188.28H73.2581V194.776C73.2581 194.92 73.1781 195 73.0181 195H72.0261C71.8661 195 71.7861 194.92 71.7861 194.776V188.28H70.0581C69.8981 188.28 69.8181 188.2 69.8181 188.04V187.24ZM76.6688 194.776V182.424C76.6688 182.28 76.7488 182.2 76.9088 182.2H77.9008C78.0608 182.2 78.1408 182.28 78.1408 182.424V188.008C78.6848 187.464 79.5168 186.84 80.8768 186.84C83.0368 186.84 84.3008 188.2 84.3008 190.28V194.776C84.3008 194.92 84.2368 195 84.0768 195H83.0848C82.9248 195 82.8288 194.92 82.8288 194.776V190.552C82.8288 189.112 81.9808 188.136 80.5408 188.136C79.3568 188.136 78.5408 188.936 78.1408 189.72V194.776C78.1408 194.92 78.0608 195 77.9168 195H76.9088C76.7488 195 76.6688 194.92 76.6688 194.776ZM85.7579 187H87.0059C87.0539 187 87.1019 187.032 87.1179 187.08L89.7419 192.92L92.5259 187.08C92.5419 187.032 92.5899 187 92.6379 187H93.8539C94.0139 187 94.0619 187.08 93.9979 187.224L88.6539 198.44C88.6379 198.488 88.5899 198.52 88.5419 198.52H87.3259C87.1659 198.52 87.1179 198.44 87.1819 198.296L89.0059 194.456L85.6139 187.224C85.5499 187.08 85.5979 187 85.7579 187ZM105.432 195.16C101.768 195.16 99.2238 192.2 99.2238 188.76C99.2238 185.32 101.768 182.36 105.432 182.36C107.48 182.36 109.368 183.304 110.264 184.728C110.344 184.856 110.376 185.016 110.248 185.096L109.48 185.608C109.352 185.688 109.24 185.688 109.144 185.56L109.096 185.496C108.2 184.296 106.968 183.72 105.576 183.72C102.936 183.72 100.792 185.864 100.792 188.744C100.792 191.624 102.936 193.8 105.576 193.8C106.904 193.8 108.152 193.224 109.192 191.832C109.288 191.704 109.4 191.688 109.528 191.784L110.232 192.312C110.376 192.408 110.376 192.52 110.264 192.696C109.32 194.168 107.48 195.16 105.432 195.16ZM115.54 186.84C116.708 186.84 117.572 187.208 118.116 187.752V187.224C118.116 187.08 118.196 187 118.356 187H119.348C119.508 187 119.588 187.08 119.588 187.224V194.776C119.588 194.92 119.508 195 119.348 195H118.356C118.196 195 118.116 194.92 118.116 194.776V194.2C117.508 194.824 116.628 195.16 115.54 195.16C113.172 195.16 111.316 193.368 111.316 191C111.316 188.632 113.172 186.84 115.54 186.84ZM112.804 191C112.804 192.6 114.02 193.864 115.7 193.864C116.788 193.864 117.604 193.352 118.116 192.552V189.432C117.636 188.728 116.788 188.136 115.7 188.136C114.02 188.136 112.804 189.4 112.804 191ZM121.981 194.776V187.224C121.981 187.08 122.061 187 122.221 187H123.133C123.293 187 123.373 187.08 123.373 187.224V188.152C123.901 187.304 124.669 186.84 125.613 186.84C125.997 186.84 126.125 186.968 126.125 187.272V187.816C126.125 188.12 125.981 188.248 125.693 188.248C124.637 188.248 123.805 188.824 123.453 189.784V194.776C123.453 194.92 123.373 195 123.213 195H122.221C122.061 195 121.981 194.92 121.981 194.776ZM131.117 186.84C133.661 186.84 135.325 188.696 135.165 191.016L135.149 191.224C135.133 191.384 135.053 191.464 134.893 191.464H128.397C128.589 192.952 129.725 193.896 131.213 193.896C132.077 193.896 132.909 193.48 133.613 192.808C133.741 192.696 133.837 192.696 133.949 192.808L134.525 193.416C134.637 193.528 134.637 193.656 134.525 193.768C133.677 194.696 132.605 195.16 131.213 195.16C128.685 195.16 126.925 193.432 126.925 191C126.925 188.568 128.669 186.84 131.117 186.84ZM128.429 190.264H133.629C133.629 189.256 132.685 188.104 131.117 188.104C129.773 188.104 128.701 188.824 128.429 190.264ZM147.376 189.768L153.216 182.504C153.296 182.408 153.36 182.36 153.408 182.36C153.456 182.36 153.488 182.408 153.488 182.488V194.776C153.488 194.92 153.408 195 153.248 195H152.192C152.048 195 151.968 194.92 151.968 194.776V186.328L147.376 192.008L142.784 186.328V194.776C142.784 194.92 142.704 195 142.56 195H141.504C141.344 195 141.264 194.92 141.264 194.776V182.488C141.264 182.408 141.296 182.36 141.344 182.36C141.392 182.36 141.456 182.408 141.536 182.504L147.376 189.768ZM159.758 186.84C162.302 186.84 163.966 188.696 163.806 191.016L163.79 191.224C163.774 191.384 163.694 191.464 163.534 191.464H157.038C157.23 192.952 158.366 193.896 159.854 193.896C160.718 193.896 161.55 193.48 162.254 192.808C162.382 192.696 162.478 192.696 162.59 192.808L163.166 193.416C163.278 193.528 163.278 193.656 163.166 193.768C162.318 194.696 161.246 195.16 159.854 195.16C157.326 195.16 155.566 193.432 155.566 191C155.566 188.568 157.31 186.84 159.758 186.84ZM157.07 190.264H162.27C162.27 189.256 161.326 188.104 159.758 188.104C158.414 188.104 157.342 188.824 157.07 190.264ZM169.493 186.84C170.661 186.84 171.525 187.208 172.069 187.752V187.224C172.069 187.08 172.149 187 172.309 187H173.301C173.461 187 173.541 187.08 173.541 187.224V194.776C173.541 194.92 173.461 195 173.301 195H172.309C172.149 195 172.069 194.92 172.069 194.776V194.2C171.461 194.824 170.581 195.16 169.493 195.16C167.125 195.16 165.269 193.368 165.269 191C165.269 188.632 167.125 186.84 169.493 186.84ZM166.757 191C166.757 192.6 167.973 193.864 169.653 193.864C170.741 193.864 171.557 193.352 172.069 192.552V189.432C171.589 188.728 170.741 188.136 169.653 188.136C167.973 188.136 166.757 189.4 166.757 191ZM175.934 194.776V182.424C175.934 182.28 176.014 182.2 176.174 182.2H177.166C177.326 182.2 177.406 182.28 177.406 182.424V194.776C177.406 194.92 177.326 195 177.166 195H176.174C176.014 195 175.934 194.92 175.934 194.776ZM183.681 188.952C183.361 188.376 182.929 188.104 182.273 188.088C181.521 188.072 180.993 188.472 180.993 189.032C180.993 189.528 181.393 189.88 182.305 190.216L182.833 190.408C184.401 190.984 185.121 191.784 185.121 192.952C185.121 194.2 183.841 195.16 182.209 195.16C180.961 195.16 179.761 194.504 179.233 193.512C179.137 193.368 179.185 193.24 179.313 193.16L180.049 192.648C180.177 192.568 180.289 192.584 180.369 192.712C180.849 193.496 181.505 193.912 182.257 193.912C183.105 193.912 183.665 193.512 183.665 192.92C183.665 192.376 183.297 192.04 182.305 191.672L181.777 191.48C180.289 190.936 179.537 190.136 179.537 189.096C179.537 187.784 180.705 186.84 182.305 186.84C183.425 186.84 184.465 187.48 184.817 188.376C184.881 188.536 184.801 188.616 184.657 188.696L184.017 189.032C183.857 189.112 183.761 189.096 183.681 188.952Z" fill="#111111"/>
<path d="M37.0074 155.34L21.5274 110.34C21.2874 109.68 21.5874 109.2 22.3074 109.2H29.0274C29.5074 109.2 29.9874 109.5 30.1074 109.98L38.8674 136.68L50.1474 109.8C50.5074 108.96 50.9874 108.54 51.5274 108.54C52.0674 108.54 52.5474 108.96 52.9074 109.8L64.1874 136.68L72.9474 109.98C73.0674 109.5 73.5474 109.2 74.0274 109.2H80.7474C81.4674 109.2 81.7674 109.68 81.5274 110.34L66.0474 155.34C65.7474 156.18 65.2074 156.66 64.7274 156.66C64.2474 156.66 63.8274 156.24 63.4674 155.34L52.4274 129.78L51.5274 127.38L50.6274 129.78L39.5874 155.34C39.2274 156.18 38.7474 156.66 38.2674 156.66C37.7874 156.66 37.3074 156.24 37.0074 155.34ZM110.42 151.32C106.82 154.8 102.44 156.6 96.8002 156.6C86.9602 156.6 80.2402 149.82 80.2402 140.82C80.2402 131.82 86.9002 125.1 96.2002 125.1C105.5 125.1 111.8 131.88 111.8 140.1V142.74C111.8 143.22 111.44 143.58 110.96 143.58H88.7602C89.6602 147 92.7202 149.4 96.8002 149.4C100.82 149.4 103.1 148.02 105.56 145.8C105.92 145.44 106.4 145.44 106.7 145.86L110.48 150.12C110.78 150.48 110.78 150.96 110.42 151.32ZM89.0602 137.22H103.1C102.2 134.4 99.8002 132.3 96.2002 132.3C92.6002 132.3 90.0802 134.16 89.0602 137.22ZM120.439 108H126.979C127.459 108 127.819 108.36 127.819 108.84V155.16C127.819 155.64 127.459 156 126.979 156H120.439C119.959 156 119.599 155.64 119.599 155.16V108.84C119.599 108.36 119.959 108 120.439 108ZM133.511 132.06V126.54C133.511 126.06 133.871 125.7 134.351 125.7H138.671V117.12C138.671 110.52 142.151 107.4 149.111 107.4H153.071C153.551 107.4 153.911 107.76 153.911 108.24V113.76C153.911 114.24 153.551 114.6 153.071 114.6H149.111C147.671 114.6 146.951 115.38 146.951 117V125.7H153.371C153.851 125.7 154.211 126.06 154.211 126.54V132.06C154.211 132.54 153.851 132.9 153.371 132.9H146.951V155.16C146.951 155.64 146.591 156 146.111 156H139.511C139.031 156 138.671 155.64 138.671 155.16V132.9H134.351C133.871 132.9 133.511 132.54 133.511 132.06ZM158.411 113.94C158.411 110.82 160.871 108.72 163.751 108.72C166.631 108.72 169.091 110.82 169.091 113.94C169.091 117.06 166.631 119.16 163.751 119.16C160.871 119.16 158.411 117.06 158.411 113.94ZM160.451 125.7H167.051C167.531 125.7 167.891 126.06 167.891 126.54V155.16C167.891 155.64 167.531 156 167.051 156H160.451C159.971 156 159.611 155.64 159.611 155.16V126.54C159.611 126.06 159.971 125.7 160.451 125.7ZM173.296 132.06V126.54C173.296 126.06 173.656 125.7 174.136 125.7H180.016V118.56C180.016 118.08 180.256 117.6 180.616 117.36L186.796 113.16C187.036 112.98 187.276 112.86 187.516 112.86C187.996 112.86 188.296 113.28 188.296 114V125.7H194.176C194.656 125.7 195.016 126.06 195.016 126.54V132.06C195.016 132.54 194.656 132.9 194.176 132.9H188.296V155.16C188.296 155.64 187.936 156 187.456 156H180.856C180.376 156 180.016 155.64 180.016 155.16V132.9H174.136C173.656 132.9 173.296 132.54 173.296 132.06Z" fill="#111111"/>
</svg>
