<svg width="335" height="75" viewBox="0 0 335 75" fill="none" xmlns="http://www.w3.org/2000/svg">
<g clip-path="url(#clip0_1725_13870)">
<path d="M317.947 18.9849C314.434 22.4973 314.434 28.2102 317.947 31.7367L322.856 36.6315C324.478 38.2537 327.116 38.2537 328.738 36.6315L320.895 28.7885C319.005 26.8983 319.005 23.8232 320.895 21.9189C322.785 20.0287 325.86 20.0287 327.751 21.9189L342.463 36.6315C344.085 38.2537 346.709 38.2537 348.345 36.6315L330.699 18.9849C327.186 15.4725 321.459 15.4725 317.947 18.9849Z" fill="#0599D9"/>
<path d="M335.596 14.0901C329.375 7.86938 319.261 7.86938 313.041 14.0901C306.82 20.3109 306.82 30.4248 313.041 36.6456C314.663 38.2678 317.301 38.2678 318.923 36.6456L315.975 33.7115C311.376 29.113 311.376 21.6368 315.975 17.0383C320.573 12.4397 328.049 12.4397 332.648 17.0383L352.255 36.6456C353.877 38.2678 356.515 38.2678 358.137 36.6456L335.582 14.0901H335.596Z" fill="#0599D9"/>
<path d="M322.864 23.8939C322.046 24.7121 322.046 26.0239 322.864 26.828L332.667 36.6316C334.29 38.2538 336.927 38.2538 338.55 36.6316L325.798 23.8798C324.994 23.0617 323.668 23.0758 322.864 23.8798" fill="#0599D9"/>
<path d="M296.061 18.9849C299.573 22.4973 299.573 28.2102 296.061 31.7367L291.166 36.6315C289.544 38.2537 286.906 38.2537 285.284 36.6315L293.127 28.7885C295.017 26.8983 295.017 23.8232 293.127 21.9189C291.222 20.0287 288.161 20.0287 286.257 21.9189L271.544 36.6315C269.922 38.2537 267.284 38.2537 265.662 36.6315L283.309 18.9849C286.821 15.4725 292.548 15.4725 296.047 18.9849" fill="#0599D9"/>
<path d="M278.414 14.0901C284.634 7.86938 294.748 7.86938 300.969 14.0901C307.19 20.3109 307.19 30.4248 300.969 36.6456C299.347 38.2678 296.709 38.2678 295.087 36.6456L298.021 33.7115C302.619 29.113 302.619 21.6368 298.021 17.0383C293.422 12.4397 285.946 12.4397 281.348 17.0383L261.74 36.6456C260.118 38.2678 257.48 38.2678 255.872 36.6456L278.428 14.0901H278.414Z" fill="#0599D9"/>
<path d="M291.161 23.8939C291.965 24.7121 291.965 26.0239 291.161 26.828L281.357 36.6316C279.735 38.2538 277.097 38.2538 275.475 36.6316L288.227 23.8798C289.031 23.0617 290.357 23.0758 291.161 23.8798" fill="#0599D9"/>
<path d="M59.6282 48.5514C59.332 48.1705 59.0499 48.0153 58.6126 48.0153H55.4387C55.1425 48.0153 54.9027 48.2551 54.9027 48.5514V73.8857C54.9027 74.1819 55.1425 74.4217 55.4387 74.4217C57.6675 74.4217 59.473 72.6162 59.473 70.3874V55.6326L73.6214 73.8857C73.9176 74.2666 74.1997 74.4076 74.6652 74.4076H77.3735C77.6698 74.4076 77.9096 74.1678 77.9096 73.8716V48.5372C77.9096 48.241 77.6698 48.0012 77.3735 48.0012H73.8753C73.579 48.0012 73.3392 48.241 73.3392 48.5372V66.2685L59.6141 48.5372L59.6282 48.5514Z" fill="#0599D9"/>
<path d="M166.461 48.5514C166.164 48.1705 165.882 48.0153 165.445 48.0153H162.285C161.989 48.0153 161.749 48.2551 161.749 48.5514V73.8857C161.749 74.1819 161.989 74.4217 162.285 74.4217C164.514 74.4217 166.306 72.6162 166.306 70.3874V55.6326L180.454 73.8857C180.75 74.2666 181.032 74.4076 181.498 74.4076H184.206C184.502 74.4076 184.742 74.1678 184.742 73.8716V48.5372C184.742 48.241 184.502 48.0012 184.206 48.0012H180.708C180.412 48.0012 180.186 48.241 180.172 48.5372V66.2685L166.433 48.5372L166.461 48.5514Z" fill="#0599D9"/>
<path d="M82.531 61.2611C82.531 68.9911 87.9618 74.8733 96.2279 74.8733C100.601 74.8733 104.141 73.2229 106.709 71.1917C107.09 70.8672 107.245 70.5851 107.245 70.0209V60.2031C107.245 59.9069 107.005 59.6671 106.709 59.6671H96.5382C96.242 59.6671 96.0022 59.9069 96.0022 60.189C96.0022 62.1356 97.568 63.7014 99.5005 63.7014H102.759V68.6385C101.137 69.8516 98.8657 70.6415 96.3831 70.6415C90.9946 70.6415 87.3976 66.6354 87.3976 61.1764C87.3976 56.0419 91.0933 51.8242 95.9599 51.8242C99.0914 51.8242 101.038 52.7693 102.942 54.3068C103.168 54.4902 103.507 54.462 103.704 54.2363L105.961 51.542C106.144 51.3163 106.116 50.9919 105.905 50.8085C103.309 48.7208 100.544 47.55 96.1574 47.55C88.2016 47.55 82.531 53.8131 82.531 61.247V61.2611Z" fill="#0599D9"/>
<path d="M189.354 61.2611C189.354 68.9911 194.785 74.8733 203.051 74.8733C207.423 74.8733 210.964 73.2229 213.531 71.1917C213.912 70.8672 214.067 70.5851 214.067 70.0209V60.2031C214.067 59.9069 213.828 59.6671 213.531 59.6671H203.361C203.065 59.6671 202.825 59.9069 202.825 60.189C202.825 62.1356 204.391 63.7014 206.323 63.7014H209.568V68.6385C207.945 69.8516 205.688 70.6415 203.192 70.6415C197.803 70.6415 194.206 66.6354 194.206 61.1764C194.206 56.0419 197.902 51.8242 202.768 51.8242C205.9 51.8242 207.847 52.7693 209.751 54.3068C209.977 54.4902 210.315 54.462 210.513 54.2363L212.77 51.542C212.953 51.3163 212.925 50.9919 212.713 50.8085C210.118 48.7208 207.339 47.55 202.966 47.55C195.01 47.55 189.34 53.8131 189.34 61.247L189.354 61.2611Z" fill="#0599D9"/>
<path d="M131.31 74.4215C133.976 74.4215 135.838 73.3495 136.854 71.1489L138.18 68.0456H150.664L153.118 73.8855C153.245 74.1817 153.583 74.4215 153.95 74.4215H157.674C157.999 74.4215 158.14 74.1817 158.013 73.8855L146.855 48.3537C146.728 48.0574 146.389 47.8176 146.093 47.8176H142.863C142.567 47.8176 142.228 48.0574 142.101 48.3537L130.943 73.8855C130.816 74.1817 130.943 74.4215 131.324 74.4215H131.31ZM144.4 53.3754L148.957 63.9408H139.858L144.386 53.3754H144.4Z" fill="#0599D9"/>
<path d="M36.4701 74.8733C44.581 74.8733 50.3081 68.6526 50.3081 61.1764C50.3081 53.7003 44.6516 47.55 36.5406 47.55C28.4297 47.55 22.7026 53.7708 22.7026 61.247C22.7026 68.7231 28.3591 74.8592 36.4701 74.8592V74.8733ZM36.4701 51.8242C41.7175 51.8242 45.4415 56.0842 45.4415 61.2611C45.4415 66.438 41.7739 70.6133 36.5406 70.6133C31.3073 70.6133 27.5692 66.3533 27.5692 61.1764C27.5692 55.9995 31.2227 51.8242 36.4701 51.8242Z" fill="#0599D9"/>
<path d="M114.214 48.5515C113.974 48.1707 113.692 48.0155 113.241 48.0155H109.009C108.656 48.0155 108.571 48.2553 108.755 48.5515L118.897 64.0117V73.8859C118.897 74.1821 119.137 74.4219 119.433 74.4219C121.718 74.4219 123.566 72.574 123.58 70.303V63.8988L133.708 48.5515C133.906 48.2553 133.821 48.0155 133.454 48.0155H129.378C128.926 48.0155 128.658 48.1566 128.404 48.5374L121.267 59.7094L114.214 48.5515Z" fill="#0599D9"/>
<path d="M13.0365 70.2884V52.3173H18.6084C20.6961 52.3173 22.3747 50.6246 22.3747 48.551C22.3747 48.2548 22.1349 48.015 21.8386 48.015H0.524492C0.228266 48.015 -0.0115356 48.2548 -0.0115356 48.551V51.7813C-0.0115356 52.0775 0.228266 52.3173 0.524492 52.3173H8.36742V73.8854C8.36742 74.1816 8.60722 74.4214 8.90345 74.4214C11.1886 74.4214 13.0506 72.5735 13.0506 70.2743L13.0365 70.2884Z" fill="#0599D9"/>
<path d="M234.872 74.4222H245.071C247.102 74.4222 248.767 72.7718 248.767 70.7265C248.767 70.4302 248.527 70.1904 248.231 70.1904H234.886V48.5377C234.886 48.2415 234.646 48.0017 234.35 48.0017H230.781C230.485 48.0017 230.245 48.2415 230.245 48.5377V70.1904C230.245 72.5179 232.333 74.4081 234.886 74.4081L234.872 74.4222Z" fill="#0599D9"/>
<path d="M252.823 48.551V73.8854C252.823 74.1816 253.062 74.4214 253.359 74.4214C255.63 74.4214 257.464 72.5876 257.464 70.3166V48.551C257.464 48.2548 257.224 48.015 256.928 48.015H253.345C253.048 48.015 252.823 48.2548 252.823 48.551Z" fill="#0599D9"/>
<path d="M263.502 48.551V73.8995C263.502 74.1957 263.742 74.4355 264.038 74.4355C266.309 74.4355 268.143 72.6018 268.143 70.3307V63.6868H277.763C279.808 63.6868 281.459 62.0364 281.459 59.991C281.459 59.6948 281.219 59.455 280.923 59.455H268.143V52.2468H279.47C281.515 52.2468 283.151 50.5964 283.151 48.551C283.151 48.2548 282.912 48.015 282.615 48.015H264.024C263.727 48.015 263.488 48.2548 263.488 48.551H263.502Z" fill="#0599D9"/>
<path d="M287.228 48.551V70.3025C287.242 72.5876 289.315 74.4214 291.869 74.4214H303.379C305.382 74.4214 306.99 72.7992 306.99 70.8103C306.99 70.5141 306.75 70.2743 306.454 70.2743H291.854V63.1789H301.475C303.478 63.1789 305.1 61.5568 305.1 59.5678C305.1 59.2716 304.86 59.0318 304.564 59.0318H291.854V52.1622H303.182C305.185 52.1622 306.793 50.54 306.793 48.551C306.793 48.2548 306.553 48.015 306.257 48.015H287.75C287.453 48.015 287.214 48.2548 287.214 48.551H287.228Z" fill="#0599D9"/>
<path d="M2.09919 30.3683C2.09919 34.7694 5.1884 38.1125 9.88569 38.1125C12.3683 38.1125 14.3855 37.1815 15.8384 36.0248C16.05 35.8414 16.1346 35.6862 16.1346 35.3618V29.7899C16.1346 29.6207 15.9936 29.4937 15.8384 29.4796H10.055C9.88569 29.4796 9.75874 29.6207 9.75874 29.7758C9.75874 30.8761 10.6474 31.7648 11.7477 31.7648H13.5956V34.5719C12.6787 35.2631 11.395 35.7145 9.97033 35.7145C6.90933 35.7145 4.86396 33.4434 4.86396 30.326C4.86396 27.406 6.96575 25.008 9.73053 25.008C11.5079 25.008 12.6223 25.544 13.6943 26.4186C13.8213 26.5315 14.0187 26.5033 14.1175 26.3763L15.4011 24.8529C15.4999 24.7259 15.4858 24.5425 15.3729 24.4297C13.8918 23.2448 12.326 22.5818 9.82927 22.5818C5.30125 22.5818 2.08508 26.1365 2.08508 30.3683H2.09919Z" fill="#0599D9"/>
<path d="M34.0443 38.0987C35.7652 38.0987 36.936 37.3934 37.7119 36.4624C37.7542 36.4059 37.7965 36.3636 37.8388 36.3213C38.1351 37.21 38.9814 37.8589 39.9829 37.8589C40.1522 37.8589 40.2792 37.7178 40.2792 37.5626V31.1585C40.2792 28.1398 38.6429 26.3766 35.2998 26.3766C33.5929 26.3766 32.4221 26.701 31.2654 27.1947C31.1103 27.2653 31.0256 27.4486 31.0821 27.6038L31.604 29.1131C31.6604 29.2683 31.8297 29.3529 31.9848 29.2824C32.9158 28.9157 33.7904 28.69 34.9471 28.69C36.7527 28.69 37.726 29.5504 37.726 31.1162V31.3983C36.8514 31.1162 35.9627 30.9328 34.5945 30.9328C31.9566 30.9328 30.01 32.1318 30.01 34.5722V34.6145C30.01 36.8855 31.9002 38.1128 34.0443 38.1128V38.0987ZM32.5914 34.4311C32.5914 33.2744 33.5506 32.6114 35.1869 32.6114C36.1884 32.6114 37.1194 32.8089 37.7824 33.0628V33.7681C37.7824 35.1787 36.4988 36.152 34.7778 36.152C33.5506 36.152 32.5914 35.5455 32.5914 34.4734V34.4311Z" fill="#0599D9"/>
<path d="M73.3318 38.0987C75.0527 38.0987 76.2235 37.3934 76.9994 36.4624C77.0417 36.4059 77.084 36.3636 77.1122 36.3213C77.4225 37.21 78.2548 37.8589 79.2563 37.8589C79.4256 37.8589 79.5526 37.7178 79.5526 37.5626V31.1585C79.5526 28.1398 77.9163 26.3766 74.5731 26.3766C72.8663 26.3766 71.6955 26.701 70.5388 27.1947C70.3837 27.2653 70.3131 27.4486 70.3554 27.6038L70.8633 29.1131C70.9197 29.2683 71.089 29.3529 71.2441 29.2824C72.161 28.9157 73.0497 28.69 74.1923 28.69C75.9978 28.69 76.9853 29.5504 76.9853 31.1162V31.3983C76.1107 31.1162 75.222 30.9328 73.8537 30.9328C71.2159 30.9328 69.2693 32.1318 69.2693 34.5722V34.6145C69.2693 36.8855 71.1595 38.1128 73.3036 38.1128L73.3318 38.0987ZM71.8789 34.4311C71.8789 33.2744 72.8522 32.6114 74.4744 32.6114C75.4759 32.6114 76.4069 32.8089 77.0699 33.0628V33.7681C77.0699 35.1787 75.7862 36.152 74.0653 36.152C72.8381 36.152 71.8789 35.5455 71.8789 34.4734V34.4311Z" fill="#0599D9"/>
<path d="M64.6757 26.8421V37.5485C64.6757 37.7178 64.8168 37.8588 64.9861 37.8588C66.2556 37.8588 67.2712 36.8291 67.2712 35.5737V26.8562C67.2712 26.6869 67.1302 26.5599 66.975 26.5599H64.9861C64.8168 26.5599 64.6757 26.701 64.6757 26.8562V26.8421Z" fill="#0599D9"/>
<path d="M64.8795 22.3286H67.066C67.2352 22.3286 67.3622 22.4697 67.3622 22.6248V24.4868C67.3622 24.6561 67.2211 24.7972 67.0519 24.7972H64.8795C64.7103 24.7972 64.5692 24.6561 64.5692 24.4868V22.6248C64.5692 22.4556 64.7103 22.3286 64.8654 22.3286H64.8795Z" fill="#0599D9"/>
<path d="M82.0847 26.8413V37.5478C82.0847 37.717 82.2257 37.8581 82.3809 37.8581C83.6504 37.8581 84.6661 36.8284 84.6661 35.5729V31.4822C84.6661 29.7189 85.7099 28.6751 87.2193 28.6751C88.7286 28.6751 89.6455 29.6766 89.6455 31.4399V37.5619C89.6455 37.7311 89.7865 37.8722 89.9417 37.8722H91.9306C92.0999 37.8722 92.2269 37.7311 92.2269 37.5619V30.664C92.2269 28.0262 90.7457 26.3053 88.1926 26.3053C86.4293 26.3053 85.3855 27.2222 84.652 28.2942V26.8413C84.652 26.6721 84.5109 26.5451 84.3416 26.5451H82.3527C82.1834 26.5451 82.0565 26.6862 82.0565 26.8413H82.0847Z" fill="#0599D9"/>
<path d="M28.0033 26.531H26.0144C25.8451 26.531 25.7041 26.672 25.7041 26.8272V32.9069C25.7041 34.6701 24.6602 35.7139 23.1509 35.7139C21.6415 35.7139 20.7246 34.7124 20.7246 32.9492V26.8272C20.7246 26.6579 20.5836 26.5168 20.4284 26.5168H18.4395C18.2702 26.5168 18.1432 26.6579 18.1432 26.8272V33.725C18.1432 36.3628 19.6244 38.0838 22.1635 38.0838C23.9267 38.0838 24.9705 37.1669 25.7041 36.0948V35.5588C25.7041 36.8283 26.7197 37.844 27.9892 37.844C28.1585 37.844 28.2855 37.7029 28.2855 37.5336V26.8272C28.2855 26.6579 28.1444 26.531 27.9892 26.531H28.0033Z" fill="#0599D9"/>
<path d="M55.4081 38.0984C57.256 38.0984 58.4268 37.1533 59.2732 35.9825C59.2732 35.9684 59.3014 35.9543 59.3014 35.9402C59.4707 37.0405 60.4158 37.8727 61.5583 37.8727C61.7276 37.8727 61.8687 37.7317 61.8687 37.5765V22.5395C61.8687 22.3702 61.7276 22.2433 61.5583 22.2433H59.5694C59.4001 22.2433 59.2732 22.3843 59.2732 22.5395V28.323C58.455 27.265 57.2842 26.334 55.4081 26.334C52.7139 26.334 50.1607 28.4499 50.1607 32.2303C50.1607 36.0107 52.7562 38.1266 55.4081 38.1266V38.0984ZM56.0429 28.5487C57.7779 28.5487 59.3296 29.9875 59.3296 32.2021C59.3296 34.4168 57.7779 35.8415 56.0429 35.8415C54.3079 35.8415 52.7844 34.4309 52.7844 32.2021C52.7844 29.9734 54.2655 28.5487 56.0429 28.5487Z" fill="#0599D9"/>
<path d="M42.782 26.8417V37.5481C42.782 37.7174 42.9231 37.8585 43.0783 37.8585C44.3478 37.8585 45.3634 36.8287 45.3634 35.5733V33.5561C45.3634 30.6221 46.8869 29.1551 49.0733 29.0845C49.2426 29.0845 49.3836 28.9435 49.3836 28.7742V26.6442C49.3836 26.489 49.2567 26.348 49.1015 26.3339C47.2677 26.3621 46.0546 27.4906 45.3775 29.0986V26.8558C45.3775 26.6865 45.2365 26.5596 45.0813 26.5596H43.0924C42.9231 26.5596 42.7961 26.7006 42.7961 26.8558L42.782 26.8417Z" fill="#0599D9"/>
<path d="M96.8539 37.8582C98.3632 37.8582 99.4212 37.2517 99.9995 35.9963L100.747 34.233H107.842L109.239 37.5479C109.309 37.7172 109.507 37.8582 109.704 37.8582H111.82C112.004 37.8582 112.088 37.7172 112.018 37.562L105.684 23.047C105.614 22.8777 105.416 22.7507 105.247 22.7507H103.413C103.244 22.7507 103.046 22.8918 102.976 23.0611L96.6423 37.562C96.5718 37.7313 96.6423 37.8582 96.8539 37.8582ZM104.288 25.8964L106.883 31.9055H101.72L104.288 25.8964Z" fill="#0599D9"/>
<path d="M113.524 26.8416V37.548C113.524 37.7173 113.665 37.8583 113.834 37.8583C115.09 37.8583 116.119 36.8286 116.119 35.5732V31.4824C116.119 29.7192 117.163 28.6753 118.672 28.6753C120.182 28.6753 121.099 29.6769 121.099 31.4401V37.5621C121.099 37.7314 121.24 37.8724 121.395 37.8724H123.384C123.553 37.8724 123.68 37.7314 123.68 37.5621V30.6643C123.68 28.0265 122.199 26.3055 119.646 26.3055C117.883 26.3055 116.839 27.2224 116.105 28.2945V26.8416C116.105 26.6723 115.964 26.5453 115.795 26.5453H113.806C113.637 26.5453 113.496 26.6864 113.496 26.8416H113.524Z" fill="#0599D9"/>
<path d="M130.809 36.9551C132.671 36.9551 133.856 36.0946 134.801 34.8815V35.7561C134.801 38.0271 133.531 39.2261 131.218 39.2261C130.287 39.2261 129.455 39.0569 128.665 38.7606C127.776 38.4362 126.803 38.8171 126.365 39.7057C126.295 39.8468 126.337 40.002 126.45 40.1007C127.861 40.9047 129.511 41.3279 131.288 41.3279C135.196 41.3279 137.382 39.5506 137.382 35.5445V26.8411C137.382 26.6718 137.241 26.5449 137.086 26.5449H135.097C134.928 26.5449 134.787 26.6859 134.787 26.8411V28.2376C133.912 27.1796 132.727 26.3051 130.823 26.3051C128.185 26.3051 125.674 28.2799 125.674 31.6371C125.674 34.9943 128.157 36.9551 130.823 36.9551H130.809ZM131.5 28.4915C133.306 28.4915 134.829 29.7328 134.829 31.6371C134.829 33.5414 133.306 34.7686 131.5 34.7686C129.694 34.7686 128.284 33.4991 128.284 31.6089C128.284 29.7187 129.694 28.4774 131.5 28.4774V28.4915Z" fill="#0599D9"/>
<path d="M152.54 37.8585C153.81 37.8585 154.825 36.8288 154.825 35.5733V22.5112C154.825 22.3419 154.684 22.215 154.529 22.215H152.54C152.371 22.215 152.23 22.356 152.23 22.5112V37.5482C152.23 37.7174 152.371 37.8585 152.54 37.8585Z" fill="#0599D9"/>
<path d="M147.171 35.5304C146.606 35.8266 146 35.9959 145.266 35.9959C143.588 35.9959 142.304 34.9661 142.008 33.1182H149.625C150.02 33.1182 150.359 32.8079 150.373 32.4129C150.373 29.1263 148.553 26.3051 144.942 26.3051C141.698 26.3051 139.412 28.957 139.412 32.2155C139.412 35.7279 141.951 38.1118 145.224 38.1118C147.171 38.1118 148.595 37.3783 149.653 36.2216C149.766 36.0946 149.752 35.8971 149.625 35.7984C148.948 35.2059 147.946 35.1213 147.171 35.5304ZM144.914 28.421C146.635 28.421 147.622 29.7328 147.791 31.3973H141.98C142.219 29.6341 143.334 28.421 144.914 28.421Z" fill="#0599D9"/>
</g>
<defs>
<clipPath id="clip0_1725_13870">
<rect width="358.151" height="74" fill="white" transform="translate(0 0.873047)"/>
</clipPath>
</defs>
</svg>
