<svg width="23" height="27" viewBox="0 0 23 27" fill="none" xmlns="http://www.w3.org/2000/svg">
<g clip-path="url(#clip0_1771_12343)">
<path d="M0.146471 15.6006C-0.0486298 15.4056 -0.0492783 15.089 0.145494 14.8936C0.340471 14.698 0.657955 14.6976 0.853502 14.8926L0.146471 15.6006ZM22.8525 14.8926C23.048 15.0874 23.0491 15.404 22.8545 15.5996L11.8896 26.6025C11.796 26.6965 11.6687 26.7498 11.5361 26.75C11.4037 26.7502 11.2765 26.6979 11.1826 26.6045L0.146471 15.6006L0.499987 15.2471L0.853502 14.8926L11.0351 25.0449L11.0351 0.5C11.0351 0.223909 11.2591 8.3992e-05 11.5351 0C11.8113 0 12.0351 0.223858 12.0351 0.5L12.0351 25.04L22.1455 14.8936C22.3403 14.6981 22.6569 14.6979 22.8525 14.8926Z" fill="white"/>
</g>
<defs>
<clipPath id="clip0_1771_12343">
<rect width="27" height="23.0002" fill="white" transform="matrix(0 1 -1 0 23 0)"/>
</clipPath>
</defs>
</svg>
